<?xml version="1.0" encoding="UTF-8"?>
<svg xmlns="http://www.w3.org/2000/svg" viewBox="-24 0 2601 550" role="img" aria-label="Anatomy of a secret link https://encoded.org/s#… : the domain identifies the service, while the Secret ID and encryption key live in the URL fragment after the # and are never sent to the server.">
	<defs>
		<style>
			/* Decorative — real glyphs baked to paths (SF Pro), so the
			   illustration renders identically everywhere and never wraps.
			   The key highlight uses --color-accent (the brand-accent role,
			   theme-driven via Appearance), matching the upstream original. */
			.ue-base { fill: currentColor; }
			.ue-key { fill: var(--color-accent); }
			.ue-brace { fill: none; stroke: currentColor; stroke-width: 10; stroke-linecap: round; stroke-linejoin: round; }
			.ue-brace-key { fill: none; stroke: var(--color-accent); stroke-width: 10; stroke-linecap: round; stroke-linejoin: round; }
		</style>
	</defs>
	<path class="ue-base" d="M43.24 187.50L28.98 187.50L28.98 117.04L43.24 117.04L43.24 144.19L43.53 144.19Q45.58 139.31 49.66 136.69Q53.74 134.08 59.60 134.08Q65.31 134.08 69.41 136.60Q73.51 139.11 75.73 143.70Q77.96 148.29 77.96 154.64L77.96 187.50L63.70 187.50L63.70 157.57Q63.70 152.10 61.08 149Q58.47 145.90 53.59 145.90Q50.46 145.90 48.15 147.39Q45.83 148.88 44.53 151.49Q43.24 154.10 43.24 157.52L43.24 187.50M107.89 188.57Q99.20 188.57 95 184.91Q90.80 181.25 90.80 172.85L90.80 145.90L83.52 145.90L83.52 135.16L90.80 135.16L90.80 122.36L105.20 122.36L105.20 135.16L114.77 135.16L114.77 145.90L105.20 145.90L105.20 171.29Q105.20 174.95 106.84 176.39Q108.47 177.83 111.70 177.83Q112.67 177.83 113.40 177.76Q114.14 177.69 114.77 177.59L114.77 188.04Q113.60 188.23 111.87 188.40Q110.13 188.57 107.89 188.57M143.43 188.57Q134.74 188.57 130.54 184.91Q126.34 181.25 126.34 172.85L126.34 145.90L119.07 145.90L119.07 135.16L126.34 135.16L126.34 122.36L140.75 122.36L140.75 135.16L150.32 135.16L150.32 145.90L140.75 145.90L140.75 171.29Q140.75 174.95 142.38 176.39Q144.02 177.83 147.24 177.83Q148.22 177.83 148.95 177.76Q149.68 177.69 150.32 177.59L150.32 188.04Q149.15 188.23 147.41 188.40Q145.68 188.57 143.43 188.57M172.44 204.59L158.18 204.59L158.18 135.16L172.44 135.16L172.44 144.29L172.78 144.29Q174.20 141.11 176.51 138.82Q178.83 136.52 181.93 135.30Q185.04 134.08 188.75 134.08Q195.39 134.08 200.17 137.33Q204.96 140.58 207.54 146.68Q210.13 152.78 210.13 161.28L210.13 161.33Q210.13 169.82 207.57 175.93Q205.01 182.03 200.27 185.30Q195.53 188.57 188.94 188.57Q185.23 188.57 182.06 187.35Q178.88 186.13 176.54 183.91Q174.20 181.69 172.73 178.56L172.44 178.56L172.44 204.59M184.06 176.76Q187.62 176.76 190.21 174.88Q192.80 173 194.21 169.53Q195.63 166.06 195.63 161.33L195.63 161.28Q195.63 156.49 194.21 153.03Q192.80 149.56 190.19 147.73Q187.57 145.90 184.06 145.90Q180.59 145.90 177.96 147.78Q175.32 149.66 173.85 153.10Q172.39 156.54 172.39 161.33L172.39 161.38Q172.39 166.06 173.88 169.53Q175.37 173 177.98 174.88Q180.59 176.76 184.06 176.76M239.04 188.57Q231.81 188.57 226.73 186.47Q221.66 184.38 218.80 180.64Q215.94 176.90 215.36 171.97L215.31 171.53L229.22 171.53L229.32 171.97Q230.01 175.05 232.40 176.76Q234.79 178.47 239.04 178.47Q241.77 178.47 243.68 177.81Q245.58 177.15 246.63 175.93Q247.68 174.71 247.68 173L247.68 172.95Q247.68 170.85 246.17 169.58Q244.65 168.31 240.80 167.43L231.91 165.58Q226.83 164.50 223.44 162.48Q220.04 160.45 218.34 157.45Q216.63 154.44 216.63 150.54L216.63 150.49Q216.63 145.46 219.31 141.80Q222 138.13 226.95 136.11Q231.91 134.08 238.55 134.08Q245.48 134.08 250.34 136.30Q255.20 138.53 257.81 142.29Q260.43 146.04 260.57 150.63L260.57 151.12L247.44 151.12L247.39 150.73Q247.05 147.90 244.78 146.02Q242.51 144.14 238.55 144.14Q236.11 144.14 234.30 144.82Q232.50 145.51 231.52 146.75Q230.54 148 230.54 149.71L230.54 149.76Q230.54 151.07 231.20 152.12Q231.86 153.17 233.42 153.96Q234.99 154.74 237.62 155.32L246.51 157.23Q251.98 158.35 255.37 160.25Q258.77 162.16 260.35 164.92Q261.94 167.68 261.94 171.53L261.94 171.58Q261.94 176.71 259.01 180.52Q256.08 184.33 250.93 186.45Q245.78 188.57 239.04 188.57M276.39 188.33Q273.07 188.33 270.78 186.04Q268.48 183.74 268.48 180.42Q268.48 177.10 270.78 174.80Q273.07 172.51 276.39 172.51Q279.71 172.51 282.01 174.80Q284.30 177.10 284.30 180.42Q284.30 183.74 282.01 186.04Q279.71 188.33 276.39 188.33M276.39 153.56Q273.07 153.56 270.78 151.27Q268.48 148.97 268.48 145.65Q268.48 142.33 270.78 140.04Q273.07 137.74 276.39 137.74Q279.71 137.74 282.01 140.04Q284.30 142.33 284.30 145.65Q284.30 148.97 282.01 151.27Q279.71 153.56 276.39 153.56M306.08 117.04L318.73 117.04L301.10 204.59L288.40 204.59L306.08 117.04M336.35 117.04L349 117.04L331.37 204.59L318.68 204.59L336.35 117.04M377.42 188.57Q369.41 188.57 363.65 185.28Q357.89 181.98 354.79 175.88Q351.69 169.78 351.69 161.43L351.69 161.38Q351.69 153.03 354.79 146.90Q357.89 140.77 363.53 137.43Q369.17 134.08 376.83 134.08Q384.50 134.08 390.09 137.33Q395.68 140.58 398.73 146.48Q401.78 152.39 401.78 160.30L401.78 164.70L358.67 164.70L358.67 155.71L395.04 155.71L388.26 164.11L388.26 158.64Q388.26 154.05 386.84 150.95Q385.43 147.85 382.91 146.29Q380.40 144.73 377.08 144.73Q373.76 144.73 371.19 146.34Q368.63 147.95 367.19 151.05Q365.75 154.15 365.75 158.64L365.75 164.16Q365.75 168.51 367.19 171.58Q368.63 174.66 371.31 176.29Q374 177.93 377.71 177.93Q380.64 177.93 382.79 177Q384.94 176.07 386.30 174.66Q387.67 173.24 388.16 171.78L388.26 171.48L401.34 171.48L401.20 172.02Q400.61 174.90 398.90 177.83Q397.19 180.76 394.29 183.20Q391.38 185.64 387.21 187.11Q383.03 188.57 377.42 188.57M423.37 187.50L409.11 187.50L409.11 135.16L423.37 135.16L423.37 143.75L423.66 143.75Q425.71 139.26 429.71 136.67Q433.72 134.08 439.63 134.08Q448.27 134.08 452.98 139.28Q457.69 144.48 457.69 153.71L457.69 187.50L443.43 187.50L443.43 156.64Q443.43 151.51 441.02 148.71Q438.60 145.90 433.81 145.90Q430.64 145.90 428.30 147.34Q425.95 148.78 424.66 151.37Q423.37 153.96 423.37 157.42L423.37 187.50M490.65 188.57Q482.69 188.57 476.88 185.25Q471.07 181.93 467.95 175.81Q464.82 169.68 464.82 161.28L464.82 161.23Q464.82 152.83 467.97 146.75Q471.12 140.67 476.91 137.38Q482.69 134.08 490.50 134.08Q497.63 134.08 502.86 136.74Q508.08 139.40 511.04 143.95Q513.99 148.49 514.28 154.15L514.28 154.49L501.05 154.49L500.95 154.05Q500.32 150.29 497.73 147.78Q495.14 145.26 490.70 145.26Q487.23 145.26 484.67 147.19Q482.11 149.12 480.71 152.71Q479.32 156.30 479.32 161.28L479.32 161.33Q479.32 166.46 480.71 170.04Q482.11 173.63 484.67 175.51Q487.23 177.39 490.75 177.39Q495.04 177.39 497.66 174.98Q500.27 172.56 501 168.60L501.05 168.16L514.33 168.16L514.33 168.46Q513.99 174.17 511.01 178.71Q508.03 183.25 502.83 185.91Q497.63 188.57 490.65 188.57M545.24 188.57Q537.28 188.57 531.47 185.30Q525.66 182.03 522.49 175.93Q519.31 169.82 519.31 161.33L519.31 161.23Q519.31 152.78 522.54 146.70Q525.76 140.63 531.57 137.35Q537.38 134.08 545.19 134.08Q553.05 134.08 558.89 137.33Q564.72 140.58 567.95 146.66Q571.17 152.73 571.17 161.23L571.17 161.33Q571.17 169.87 567.97 175.98Q564.77 182.08 558.96 185.33Q553.15 188.57 545.24 188.57M545.29 177.39Q548.76 177.39 551.32 175.51Q553.88 173.63 555.27 170.04Q556.67 166.46 556.67 161.33L556.67 161.23Q556.67 156.15 555.25 152.59Q553.83 149.02 551.25 147.14Q548.66 145.26 545.19 145.26Q541.77 145.26 539.21 147.14Q536.65 149.02 535.23 152.59Q533.81 156.15 533.81 161.23L533.81 161.33Q533.81 166.46 535.21 170.04Q536.60 173.63 539.19 175.51Q541.77 177.39 545.29 177.39M597.88 188.57Q591.29 188.57 586.50 185.30Q581.71 182.03 579.15 175.93Q576.59 169.82 576.59 161.33L576.59 161.28Q576.59 152.73 579.18 146.66Q581.76 140.58 586.52 137.33Q591.29 134.08 597.88 134.08Q601.59 134.08 604.71 135.30Q607.84 136.52 610.21 138.79Q612.57 141.06 613.99 144.24L614.28 144.24L614.28 117.04L628.54 117.04L628.54 187.50L614.28 187.50L614.28 178.56L613.99 178.56Q612.62 181.69 610.28 183.91Q607.94 186.13 604.81 187.35Q601.69 188.57 597.88 188.57M602.66 176.76Q606.13 176.76 608.77 174.88Q611.40 173 612.87 169.53Q614.33 166.06 614.33 161.33L614.33 161.28Q614.33 156.54 612.84 153.10Q611.35 149.66 608.74 147.78Q606.13 145.90 602.66 145.90Q599.10 145.90 596.51 147.75Q593.92 149.61 592.51 153.05Q591.09 156.49 591.09 161.28L591.09 161.33Q591.09 166.06 592.48 169.53Q593.87 173 596.49 174.88Q599.10 176.76 602.66 176.76M661.89 188.57Q653.88 188.57 648.12 185.28Q642.36 181.98 639.26 175.88Q636.16 169.78 636.16 161.43L636.16 161.38Q636.16 153.03 639.26 146.90Q642.36 140.77 648 137.43Q653.64 134.08 661.30 134.08Q668.97 134.08 674.56 137.33Q680.15 140.58 683.20 146.48Q686.26 152.39 686.26 160.30L686.26 164.70L643.14 164.70L643.14 155.71L679.52 155.71L672.73 164.11L672.73 158.64Q672.73 154.05 671.31 150.95Q669.90 147.85 667.38 146.29Q664.87 144.73 661.55 144.73Q658.23 144.73 655.67 146.34Q653.10 147.95 651.66 151.05Q650.22 154.15 650.22 158.64L650.22 164.16Q650.22 168.51 651.66 171.58Q653.10 174.66 655.79 176.29Q658.47 177.93 662.18 177.93Q665.11 177.93 667.26 177Q669.41 176.07 670.78 174.66Q672.14 173.24 672.63 171.78L672.73 171.48L685.82 171.48L685.67 172.02Q685.08 174.90 683.38 177.83Q681.67 180.76 678.76 183.20Q675.86 185.64 671.68 187.11Q667.51 188.57 661.89 188.57M712.96 188.57Q706.37 188.57 701.59 185.30Q696.80 182.03 694.24 175.93Q691.68 169.82 691.68 161.33L691.68 161.28Q691.68 152.73 694.26 146.66Q696.85 140.58 701.61 137.33Q706.37 134.08 712.96 134.08Q716.68 134.08 719.80 135.30Q722.93 136.52 725.29 138.79Q727.66 141.06 729.08 144.24L729.37 144.24L729.37 117.04L743.63 117.04L743.63 187.50L729.37 187.50L729.37 178.56L729.08 178.56Q727.71 181.69 725.37 183.91Q723.02 186.13 719.90 187.35Q716.77 188.57 712.96 188.57M717.75 176.76Q721.22 176.76 723.85 174.88Q726.49 173 727.96 169.53Q729.42 166.06 729.42 161.33L729.42 161.28Q729.42 156.54 727.93 153.10Q726.44 149.66 723.83 147.78Q721.22 145.90 717.75 145.90Q714.19 145.90 711.60 147.75Q709.01 149.61 707.59 153.05Q706.18 156.49 706.18 161.28L706.18 161.33Q706.18 166.06 707.57 169.53Q708.96 173 711.57 174.88Q714.19 176.76 717.75 176.76M760.57 188.33Q757.25 188.33 754.96 186.04Q752.66 183.74 752.66 180.42Q752.66 177.10 754.96 174.80Q757.25 172.51 760.57 172.51Q763.89 172.51 766.19 174.80Q768.48 177.10 768.48 180.42Q768.48 183.74 766.19 186.04Q763.89 188.33 760.57 188.33M801.25 188.57Q793.29 188.57 787.48 185.30Q781.67 182.03 778.49 175.93Q775.32 169.82 775.32 161.33L775.32 161.23Q775.32 152.78 778.54 146.70Q781.76 140.63 787.57 137.35Q793.38 134.08 801.20 134.08Q809.06 134.08 814.89 137.33Q820.73 140.58 823.95 146.66Q827.17 152.73 827.17 161.23L827.17 161.33Q827.17 169.87 823.98 175.98Q820.78 182.08 814.97 185.33Q809.16 188.57 801.25 188.57M801.29 177.39Q804.76 177.39 807.33 175.51Q809.89 173.63 811.28 170.04Q812.67 166.46 812.67 161.33L812.67 161.23Q812.67 156.15 811.26 152.59Q809.84 149.02 807.25 147.14Q804.66 145.26 801.20 145.26Q797.78 145.26 795.22 147.14Q792.65 149.02 791.24 152.59Q789.82 156.15 789.82 161.23L789.82 161.33Q789.82 166.46 791.21 170.04Q792.60 173.63 795.19 175.51Q797.78 177.39 801.29 177.39M848.76 187.50L834.50 187.50L834.50 135.16L848.76 135.16L848.76 144.29L849.05 144.29Q850.22 139.45 853.30 136.77Q856.37 134.08 860.96 134.08Q862.13 134.08 863.21 134.23Q864.28 134.38 865.06 134.62L865.06 147.17Q864.19 146.83 862.82 146.61Q861.45 146.39 859.89 146.39Q856.37 146.39 853.88 147.75Q851.39 149.12 850.07 151.76Q848.76 154.39 848.76 158.20L848.76 187.50M895.34 205.66Q888.16 205.66 882.81 203.69Q877.47 201.71 874.32 198.34Q871.17 194.97 870.48 190.77L870.44 190.33L884.30 190.33L884.45 190.67Q885.33 192.58 888.11 194.04Q890.89 195.51 895.34 195.51Q900.86 195.51 903.74 192.87Q906.62 190.23 906.62 185.84L906.62 177.83L906.32 177.83Q904.96 180.57 902.61 182.57Q900.27 184.57 897.12 185.67Q893.97 186.77 890.16 186.77Q883.62 186.77 878.86 183.64Q874.10 180.52 871.53 174.68Q868.97 168.85 868.97 160.74L868.97 160.69Q868.97 152.34 871.58 146.39Q874.20 140.43 878.98 137.26Q883.77 134.08 890.41 134.08Q894.12 134.08 897.19 135.30Q900.27 136.52 902.59 138.77Q904.91 141.02 906.32 144.09L906.62 144.09L906.62 135.16L920.88 135.16L920.88 186.04Q920.88 191.85 917.77 196.26Q914.67 200.68 908.94 203.17Q903.20 205.66 895.34 205.66M895.09 176.32Q898.61 176.32 901.20 174.46Q903.79 172.61 905.23 169.19Q906.67 165.77 906.67 161.08L906.67 161.04Q906.67 156.35 905.23 152.95Q903.79 149.56 901.17 147.73Q898.56 145.90 895.09 145.90Q891.58 145.90 888.94 147.73Q886.30 149.56 884.89 152.93Q883.47 156.30 883.47 161.04L883.47 161.08Q883.47 165.77 884.89 169.19Q886.30 172.61 888.94 174.46Q891.58 176.32 895.09 176.32M943.24 117.04L955.88 117.04L938.26 204.59L925.56 204.59L943.24 117.04M982.01 188.57Q974.78 188.57 969.70 186.47Q964.63 184.38 961.77 180.64Q958.91 176.90 958.33 171.97L958.28 171.53L972.19 171.53L972.29 171.97Q972.97 175.05 975.37 176.76Q977.76 178.47 982.01 178.47Q984.74 178.47 986.65 177.81Q988.55 177.15 989.60 175.93Q990.65 174.71 990.65 173L990.65 172.95Q990.65 170.85 989.14 169.58Q987.62 168.31 983.77 167.43L974.88 165.58Q969.80 164.50 966.41 162.48Q963.01 160.45 961.30 157.45Q959.60 154.44 959.60 150.54L959.60 150.49Q959.60 145.46 962.28 141.80Q964.97 138.13 969.92 136.11Q974.88 134.08 981.52 134.08Q988.45 134.08 993.31 136.30Q998.17 138.53 1000.78 142.29Q1003.39 146.04 1003.54 150.63L1003.54 151.12L990.41 151.12L990.36 150.73Q990.02 147.90 987.75 146.02Q985.47 144.14 981.52 144.14Q979.08 144.14 977.27 144.82Q975.46 145.51 974.49 146.75Q973.51 148 973.51 149.71L973.51 149.76Q973.51 151.07 974.17 152.12Q974.83 153.17 976.39 153.96Q977.96 154.74 980.59 155.32L989.48 157.23Q994.95 158.35 998.34 160.25Q1001.73 162.16 1003.32 164.92Q1004.91 167.68 1004.91 171.53L1004.91 171.58Q1004.91 176.71 1001.98 180.52Q999.05 184.33 993.90 186.45Q988.75 188.57 982.01 188.57M1030.25 163.62L1025.71 187.50L1014.82 187.50L1028.35 117.04L1039.19 117.04L1034.94 139.26L1034.35 139.26L1029.66 163.62L1030.25 163.62M1062.96 117.04L1049.49 187.50L1038.55 187.50L1043.09 163.57L1043.68 163.57L1048.37 139.21L1047.78 139.21L1052.08 117.04L1062.96 117.04M1066.63 159.23L1064.63 169.82L1007.30 169.82L1009.30 159.23L1026.05 159.23L1026.05 159.81L1050.61 159.81L1050.61 159.23L1066.63 159.23M1071.17 133.89L1069.17 144.38L1052.47 144.38L1052.47 143.80L1028 143.80L1027.96 144.38L1011.79 144.38L1013.84 133.89"/>
	<path class="ue-key" d="M1103.93 187.50L1077.03 187.50L1077.03 117.04L1103.93 117.04Q1114.53 117.04 1122.02 121.09Q1129.52 125.15 1133.52 132.93Q1137.53 140.72 1137.53 151.90L1137.53 152Q1137.53 163.18 1133.55 171.14Q1129.57 179.10 1122.05 183.30Q1114.53 187.50 1103.93 187.50M1091.77 129.20L1091.77 175.29L1102.17 175.29Q1108.77 175.29 1113.31 172.66Q1117.85 170.02 1120.17 164.84Q1122.49 159.67 1122.49 152.05L1122.49 151.95Q1122.49 144.58 1120.12 139.50Q1117.75 134.42 1113.21 131.81Q1108.67 129.20 1102.17 129.20L1091.77 129.20M1141.58 204.74Q1140.60 204.74 1139.45 204.69Q1138.31 204.64 1137.67 204.59L1137.67 193.85Q1138.06 193.90 1138.53 193.92Q1138.99 193.95 1139.48 193.95Q1143.04 193.95 1144.56 192.65Q1146.07 191.36 1146.07 188.18L1146.07 135.16L1160.33 135.16L1160.33 188.57Q1160.33 196.53 1155.57 200.63Q1150.81 204.74 1141.58 204.74M1153.20 128.42Q1149.98 128.42 1147.78 126.22Q1145.58 124.02 1145.58 121Q1145.58 117.92 1147.78 115.75Q1149.98 113.57 1153.20 113.57Q1156.42 113.57 1158.62 115.75Q1160.82 117.92 1160.82 121Q1160.82 124.02 1158.62 126.22Q1156.42 128.42 1153.20 128.42M1195.04 187.50L1180.05 187.50L1166.14 135.16L1180.49 135.16L1188.40 173.97L1188.70 173.97L1197.97 135.16L1211.65 135.16L1220.97 173.97L1221.27 173.97L1229.22 135.16L1243.29 135.16L1229.42 187.50L1214.23 187.50L1204.76 150.49L1204.47 150.49L1195.04 187.50M1268.34 187.50L1252.86 187.50L1283.18 129.05L1283.18 128.76L1247.34 128.76L1247.34 117.04L1297.73 117.04L1297.73 128.91L1268.34 187.50M1335.87 148.88L1321.46 166.65L1321.46 149.27L1322.39 149.27L1348.22 117.04L1364.63 117.04L1338.75 148.88L1335.87 148.88M1322.05 187.50L1307.30 187.50L1307.30 117.04L1322.05 117.04L1322.05 187.50M1366.43 187.50L1348.80 187.50L1326.20 154.10L1336.84 144.43L1366.43 187.50M1385.67 204.59L1371.41 204.59L1371.41 135.16L1385.67 135.16L1385.67 144.29L1386.01 144.29Q1387.43 141.11 1389.75 138.82Q1392.07 136.52 1395.17 135.30Q1398.27 134.08 1401.98 134.08Q1408.62 134.08 1413.40 137.33Q1418.19 140.58 1420.78 146.68Q1423.37 152.78 1423.37 161.28L1423.37 161.33Q1423.37 169.82 1420.80 175.93Q1418.24 182.03 1413.50 185.30Q1408.77 188.57 1402.17 188.57Q1398.46 188.57 1395.29 187.35Q1392.12 186.13 1389.77 183.91Q1387.43 181.69 1385.96 178.56L1385.67 178.56L1385.67 204.59M1397.29 176.76Q1400.86 176.76 1403.44 174.88Q1406.03 173 1407.45 169.53Q1408.86 166.06 1408.86 161.33L1408.86 161.28Q1408.86 156.49 1407.45 153.03Q1406.03 149.56 1403.42 147.73Q1400.81 145.90 1397.29 145.90Q1393.82 145.90 1391.19 147.78Q1388.55 149.66 1387.09 153.10Q1385.62 156.54 1385.62 161.33L1385.62 161.38Q1385.62 166.06 1387.11 169.53Q1388.60 173 1391.21 174.88Q1393.82 176.76 1397.29 176.76M1482.30 187.50L1431.08 187.50L1431.08 177.39L1455.98 154.10Q1460.57 149.85 1462.92 147.02Q1465.26 144.19 1466.11 141.94Q1466.97 139.70 1466.97 137.26L1466.97 137.16Q1466.97 134.28 1465.60 132.06Q1464.23 129.83 1461.82 128.56Q1459.40 127.29 1456.28 127.29Q1452.66 127.29 1449.93 128.74Q1447.19 130.18 1445.63 132.69Q1444.07 135.21 1443.97 138.38L1443.92 138.82L1430.25 138.82L1430.25 138.43Q1430.25 131.79 1433.62 126.68Q1436.99 121.58 1442.87 118.70Q1448.76 115.82 1456.18 115.82Q1463.65 115.82 1469.31 118.43Q1474.98 121.04 1478.15 125.68Q1481.32 130.32 1481.32 136.33L1481.32 136.43Q1481.32 140.67 1479.79 144.31Q1478.25 147.95 1474.73 152.03Q1471.22 156.10 1465.11 161.72L1444.70 180.32L1450.37 170.41L1450.37 180.32L1444.75 175.78L1482.30 175.78L1482.30 187.50M1537.82 187.50L1492.26 187.50L1492.26 117.04L1507.01 117.04L1507.01 175.34L1537.82 175.34L1537.82 187.50M1559.60 187.50L1545.34 187.50L1545.34 135.16L1559.60 135.16L1559.60 143.95L1559.89 143.95Q1561.50 139.45 1565.38 136.77Q1569.26 134.08 1574.54 134.08Q1578.20 134.08 1581.13 135.35Q1584.06 136.62 1586.08 139.01Q1588.11 141.41 1588.94 144.87L1589.23 144.87Q1590.41 141.55 1592.77 139.14Q1595.14 136.72 1598.39 135.40Q1601.64 134.08 1605.49 134.08Q1610.62 134.08 1614.48 136.28Q1618.34 138.48 1620.48 142.43Q1622.63 146.39 1622.63 151.71L1622.63 187.50L1608.38 187.50L1608.38 155.27Q1608.38 152.25 1607.37 150.15Q1606.37 148.05 1604.49 146.97Q1602.61 145.90 1599.83 145.90Q1597.14 145.90 1595.12 147.12Q1593.09 148.34 1591.97 150.54Q1590.85 152.73 1590.85 155.66L1590.85 187.50L1577.13 187.50L1577.13 154.83Q1577.13 152 1576.10 150Q1575.07 148 1573.19 146.95Q1571.31 145.90 1568.68 145.90Q1565.99 145.90 1563.94 147.17Q1561.89 148.44 1560.74 150.68Q1559.60 152.93 1559.60 155.91L1559.60 187.50M1664.67 188.72Q1654.22 188.72 1646.58 184.28Q1638.94 179.83 1634.82 171.66Q1630.69 163.48 1630.69 152.29L1630.69 152.20Q1630.69 140.97 1634.84 132.81Q1638.99 124.66 1646.63 120.24Q1654.27 115.82 1664.67 115.82Q1675.12 115.82 1682.74 120.26Q1690.36 124.71 1694.51 132.84Q1698.66 140.97 1698.66 152.20L1698.66 152.29Q1698.66 163.48 1694.51 171.66Q1690.36 179.83 1682.76 184.28Q1675.17 188.72 1664.67 188.72M1664.67 176.22Q1670.53 176.22 1674.76 173.27Q1678.98 170.31 1681.28 164.94Q1683.57 159.57 1683.57 152.29L1683.57 152.20Q1683.57 144.82 1681.25 139.48Q1678.93 134.13 1674.68 131.23Q1670.44 128.32 1664.67 128.32Q1658.91 128.32 1654.66 131.20Q1650.42 134.08 1648.07 139.43Q1645.73 144.78 1645.73 152.20L1645.73 152.29Q1645.73 159.62 1648.05 164.99Q1650.37 170.36 1654.62 173.29Q1658.86 176.22 1664.67 176.22M1696.27 194.09L1682.25 194.09L1660.47 163.33L1674.49 163.33L1696.27 194.09M1754.86 187.50L1740.85 187.50L1740.85 174.56L1705.79 174.56L1705.79 162.26Q1708.62 157.76 1711.45 153.22Q1714.28 148.68 1717.12 144.17Q1719.95 139.65 1722.75 135.13Q1725.56 130.62 1728.39 126.07Q1731.23 121.53 1734.06 117.04L1754.86 117.04L1754.86 162.79L1764.14 162.79L1764.14 174.56L1754.86 174.56L1754.86 187.50M1718.63 162.79L1718.63 163.18L1741.14 163.18L1741.14 127.69L1740.80 127.69Q1738.55 131.20 1736.35 134.72Q1734.16 138.23 1731.93 141.72Q1729.71 145.21 1727.49 148.75Q1725.27 152.29 1723.05 155.79Q1720.83 159.28 1718.63 162.79M1801.54 187.50L1785.47 187.50L1767.36 135.16L1782.59 135.16L1793.53 174.90L1793.82 174.90L1804.62 135.16L1819.51 135.16L1801.54 187.50M1857.30 187.50L1842.55 187.50L1842.55 129.20L1822.19 129.20L1822.19 117.04L1877.71 117.04L1877.71 129.20L1857.30 129.20L1857.30 187.50M1898.90 187.50L1884.64 187.50L1884.64 135.16L1898.90 135.16L1898.90 143.75L1899.20 143.75Q1901.25 139.26 1905.25 136.67Q1909.25 134.08 1915.16 134.08Q1923.80 134.08 1928.52 139.28Q1933.23 144.48 1933.23 153.71L1933.23 187.50L1918.97 187.50L1918.97 156.64Q1918.97 151.51 1916.55 148.71Q1914.14 145.90 1909.35 145.90Q1906.18 145.90 1903.83 147.34Q1901.49 148.78 1900.20 151.37Q1898.90 153.96 1898.90 157.42L1898.90 187.50M1974.68 187.50L1950.86 187.50L1950.86 176.51L1970.92 176.51Q1977.27 176.51 1980.64 173.95Q1984.01 171.39 1984.01 166.50L1984.01 166.41Q1984.01 163.18 1982.45 160.96Q1980.88 158.74 1977.83 157.62Q1974.78 156.49 1970.29 156.49L1950.86 156.49L1950.86 146.48L1968.53 146.48Q1974.78 146.48 1978.03 143.97Q1981.28 141.46 1981.28 136.91L1981.28 136.82Q1981.28 132.62 1978.39 130.30Q1975.51 127.98 1970.34 127.98L1950.86 127.98L1950.86 117.04L1974.15 117.04Q1980.84 117.04 1985.67 119.19Q1990.50 121.34 1993.14 125.32Q1995.78 129.30 1995.78 134.72L1995.78 134.81Q1995.78 138.67 1994 141.97Q1992.21 145.26 1989.14 147.44Q1986.06 149.61 1982.15 150.15L1982.15 150.44Q1987.09 150.78 1990.89 153.05Q1994.70 155.32 1996.88 159.01Q1999.05 162.70 1999.05 167.33L1999.05 167.43Q1999.05 173.58 1996.09 178.08Q1993.14 182.57 1987.70 185.03Q1982.25 187.50 1974.68 187.50M1958.23 187.50L1943.48 187.50L1943.48 117.04L1958.23 117.04L1958.23 187.50M2034.06 188.72Q2025.66 188.72 2019.26 186.13Q2012.87 183.54 2009.25 178.93Q2005.64 174.32 2005.64 168.26L2005.64 168.16Q2005.64 163.57 2007.74 159.91Q2009.84 156.25 2013.50 153.81Q2017.16 151.37 2021.90 150.44L2021.90 150.15Q2015.80 148.63 2012.01 144.51Q2008.23 140.38 2008.23 134.72L2008.23 134.62Q2008.23 129.15 2011.50 124.93Q2014.77 120.70 2020.61 118.26Q2026.44 115.82 2034.06 115.82Q2041.68 115.82 2047.49 118.26Q2053.30 120.70 2056.59 124.93Q2059.89 129.15 2059.89 134.62L2059.89 134.72Q2059.89 140.38 2056.10 144.51Q2052.32 148.63 2046.22 150.15L2046.22 150.44Q2050.95 151.37 2054.62 153.81Q2058.28 156.25 2060.35 159.91Q2062.43 163.57 2062.43 168.16L2062.43 168.26Q2062.43 174.32 2058.84 178.93Q2055.25 183.54 2048.85 186.13Q2042.46 188.72 2034.06 188.72M2034.06 177.98Q2037.92 177.98 2040.85 176.61Q2043.78 175.24 2045.46 172.80Q2047.14 170.36 2047.14 167.29L2047.14 167.19Q2047.14 164.06 2045.48 161.62Q2043.82 159.18 2040.87 157.79Q2037.92 156.40 2034.06 156.40Q2030.15 156.40 2027.20 157.79Q2024.24 159.18 2022.58 161.62Q2020.92 164.06 2020.92 167.19L2020.92 167.29Q2020.92 170.36 2022.61 172.80Q2024.29 175.24 2027.25 176.61Q2030.20 177.98 2034.06 177.98M2034.06 145.70Q2037.38 145.70 2039.92 144.48Q2042.46 143.26 2043.87 141.09Q2045.29 138.92 2045.29 136.08L2045.29 135.99Q2045.29 133.15 2043.85 131.01Q2042.41 128.86 2039.87 127.66Q2037.33 126.46 2034.06 126.46Q2030.74 126.46 2028.20 127.66Q2025.66 128.86 2024.22 131.01Q2022.78 133.15 2022.78 135.99L2022.78 136.08Q2022.78 138.92 2024.22 141.09Q2025.66 143.26 2028.20 144.48Q2030.74 145.70 2034.06 145.70M2092.65 188.57Q2085.43 188.57 2080.35 186.47Q2075.27 184.38 2072.41 180.64Q2069.56 176.90 2068.97 171.97L2068.92 171.53L2082.84 171.53L2082.94 171.97Q2083.62 175.05 2086.01 176.76Q2088.40 178.47 2092.65 178.47Q2095.39 178.47 2097.29 177.81Q2099.20 177.15 2100.25 175.93Q2101.29 174.71 2101.29 173L2101.29 172.95Q2101.29 170.85 2099.78 169.58Q2098.27 168.31 2094.41 167.43L2085.52 165.58Q2080.45 164.50 2077.05 162.48Q2073.66 160.45 2071.95 157.45Q2070.24 154.44 2070.24 150.54L2070.24 150.49Q2070.24 145.46 2072.93 141.80Q2075.61 138.13 2080.57 136.11Q2085.52 134.08 2092.16 134.08Q2099.10 134.08 2103.96 136.30Q2108.81 138.53 2111.43 142.29Q2114.04 146.04 2114.19 150.63L2114.19 151.12L2101.05 151.12L2101 150.73Q2100.66 147.90 2098.39 146.02Q2096.12 144.14 2092.16 144.14Q2089.72 144.14 2087.92 144.82Q2086.11 145.51 2085.13 146.75Q2084.16 148 2084.16 149.71L2084.16 149.76Q2084.16 151.07 2084.82 152.12Q2085.47 153.17 2087.04 153.96Q2088.60 154.74 2091.24 155.32L2100.12 157.23Q2105.59 158.35 2108.99 160.25Q2112.38 162.16 2113.97 164.92Q2115.55 167.68 2115.55 171.53L2115.55 171.58Q2115.55 176.71 2112.62 180.52Q2109.69 184.33 2104.54 186.45Q2099.39 188.57 2092.65 188.57M2138.55 187.50L2123.80 187.50L2123.80 117.04L2152.91 117.04Q2160.82 117.04 2166.46 119.73Q2172.10 122.41 2175.10 127.47Q2178.10 132.52 2178.10 139.60L2178.10 139.70Q2178.10 146.63 2174.66 152.05Q2171.22 157.47 2165.36 159.77L2180.20 187.50L2163.50 187.50L2150.37 161.96Q2150.22 161.96 2150.03 161.96Q2149.83 161.96 2149.63 161.96L2138.55 161.96L2138.55 187.50M2138.55 128.56L2138.55 150.78L2151.29 150.78Q2156.81 150.78 2159.91 147.83Q2163.01 144.87 2163.01 139.70L2163.01 139.60Q2163.01 134.52 2159.79 131.54Q2156.57 128.56 2151.10 128.56L2138.55 128.56M2213.16 188.72Q2205.15 188.72 2199.20 186.11Q2193.24 183.50 2189.75 178.86Q2186.26 174.22 2185.77 168.16L2185.72 167.53L2199.78 167.53L2199.88 168.07Q2200.22 170.61 2201.91 172.58Q2203.59 174.56 2206.45 175.71Q2209.30 176.86 2213.11 176.86Q2216.92 176.86 2219.70 175.61Q2222.49 174.37 2224.02 172.14Q2225.56 169.92 2225.56 167.04L2225.56 166.94Q2225.56 161.87 2222 159.18Q2218.43 156.49 2212.04 156.49L2203.98 156.49L2203.98 146L2211.84 146Q2215.55 146 2218.29 144.78Q2221.02 143.55 2222.51 141.38Q2224 139.21 2224 136.38L2224 136.28Q2224 133.40 2222.71 131.37Q2221.41 129.35 2218.95 128.25Q2216.48 127.15 2213.01 127.15Q2209.60 127.15 2206.96 128.27Q2204.32 129.39 2202.76 131.42Q2201.20 133.45 2200.86 136.18L2200.81 136.62L2187.28 136.62L2187.33 136.04Q2187.82 129.88 2191.11 125.37Q2194.41 120.85 2200.03 118.33Q2205.64 115.82 2213.01 115.82Q2220.63 115.82 2226.22 118.14Q2231.81 120.46 2234.89 124.61Q2237.96 128.76 2237.96 134.33L2237.96 134.42Q2237.96 138.82 2236.01 142.14Q2234.06 145.46 2230.71 147.61Q2227.37 149.76 2223.27 150.63L2223.27 150.93Q2231.13 151.66 2235.84 156.01Q2240.55 160.35 2240.55 167.53L2240.55 167.63Q2240.55 173.93 2237.13 178.66Q2233.72 183.40 2227.56 186.06Q2221.41 188.72 2213.16 188.72M2261.01 187.50L2246.02 187.50L2262.43 161.43L2246.12 135.16L2262.18 135.16L2271.61 152.83L2271.90 152.83L2281.18 135.16L2296.71 135.16L2280.35 161.04L2296.56 187.50L2281.08 187.50L2271.12 169.34L2270.83 169.34L2261.01 187.50M2356.47 187.50L2302.08 187.50L2302.08 177.88L2337.92 129.49L2337.92 129.20L2302.91 129.20L2302.91 117.04L2355.49 117.04L2355.49 126.61L2319.80 175.05L2319.80 175.34L2356.47 175.34L2356.47 187.50M2394.21 188.72Q2387.82 188.72 2382.47 186.47Q2377.13 184.23 2373.15 179.76Q2369.17 175.29 2366.99 168.58Q2364.82 161.87 2364.82 152.88L2364.82 152.78Q2364.82 141.26 2368.38 132.96Q2371.95 124.66 2378.57 120.24Q2385.18 115.82 2394.36 115.82Q2401.20 115.82 2406.67 118.24Q2412.13 120.65 2415.72 124.90Q2419.31 129.15 2420.34 134.57L2420.44 135.06L2405.88 135.06L2405.74 134.62Q2404.86 132.47 2403.27 130.88Q2401.69 129.30 2399.44 128.39Q2397.19 127.49 2394.31 127.49Q2389.19 127.49 2385.89 130.47Q2382.59 133.45 2380.93 138.48Q2379.27 143.51 2378.98 149.76Q2378.93 150.49 2378.91 151.22Q2378.88 151.95 2378.88 152.69L2381.13 164.40Q2381.13 167.92 2382.84 170.78Q2384.55 173.63 2387.48 175.32Q2390.41 177 2394.02 177Q2397.63 177 2400.56 175.34Q2403.49 173.68 2405.25 170.87Q2407.01 168.07 2407.01 164.60L2407.01 164.50Q2407.01 160.84 2405.32 158.01Q2403.64 155.18 2400.73 153.59Q2397.83 152 2394.17 152Q2390.50 152 2387.53 153.59Q2384.55 155.18 2382.84 157.96Q2381.13 160.74 2381.13 164.31L2381.13 164.40L2378.15 164.40L2378.15 152.44L2379.18 152.44Q2380.59 149.17 2383.30 146.63Q2386.01 144.09 2389.84 142.60Q2393.68 141.11 2398.41 141.11Q2405.25 141.11 2410.40 144.07Q2415.55 147.02 2418.46 152.20Q2421.36 157.37 2421.36 163.96L2421.36 164.06Q2421.36 171.29 2417.85 176.83Q2414.33 182.37 2408.20 185.55Q2402.08 188.72 2394.21 188.72M2438.89 204.74Q2436.79 204.74 2434.84 204.54Q2432.89 204.35 2431.62 204.10L2431.62 193.51Q2432.40 193.65 2433.62 193.82Q2434.84 193.99 2436.40 193.99Q2439.63 193.99 2441.48 192.92Q2443.34 191.85 2444.26 189.21L2444.90 187.50L2426.39 135.16L2442.07 135.16L2453.88 178.91L2451.98 176.07L2454.66 176.07L2452.76 178.91L2464.58 135.16L2479.62 135.16L2461.65 188.43Q2459.60 194.58 2456.50 198.14Q2453.39 201.71 2449.05 203.22Q2444.70 204.74 2438.89 204.74M2500.56 187.50L2485.82 187.50L2485.82 117.04L2500.56 117.04L2500.56 145.65L2532.30 145.65L2532.30 117.04L2547.05 117.04L2547.05 187.50L2532.30 187.50L2532.30 157.81L2500.56 157.81"/>
	<path class="ue-brace" d="M925.56,244c0,49 -80.98,88.9 -180.76,88.9h-180.02l-90,56.9l-90,-56.9h-180.02c-99.6,0 -180.76,-39.9 -180.76,-88.9"/>
	<path class="ue-brace-key" d="M2552.91,244c0,49 -133.1,88.9 -297.09,88.9h-353.78l-90,56.9l-90,-56.9h-353.78c-163.7,0 -297.09,-39.9 -297.09,-88.9"/>
	<path class="ue-base" d="M358.02 493.69L337.26 493.69L337.26 438.03L358.02 438.03Q366.31 438.03 372.17 441.27Q378.04 444.51 381.14 450.68Q384.25 456.86 384.25 465.61L384.25 465.69Q384.25 474.56 381.14 480.83Q378.04 487.10 372.19 490.40Q366.35 493.69 358.02 493.69M347.22 446.40L347.22 485.32L356.74 485.32Q362.30 485.32 366.18 483.05Q370.05 480.77 372.08 476.41Q374.10 472.05 374.10 465.81L374.10 465.73Q374.10 459.60 372.06 455.28Q370.01 450.95 366.12 448.68Q362.22 446.40 356.74 446.40L347.22 446.40M411.98 494.54Q405.77 494.54 401.24 491.92Q396.71 489.30 394.26 484.42Q391.81 479.54 391.81 472.79L391.81 472.71Q391.81 466 394.28 461.12Q396.75 456.24 401.28 453.62Q405.81 450.99 411.98 450.99Q418.19 450.99 422.71 453.62Q427.22 456.24 429.69 461.10Q432.16 465.96 432.16 472.71L432.16 472.79Q432.16 479.54 429.71 484.42Q427.26 489.30 422.74 491.92Q418.23 494.54 411.98 494.54M411.98 486.75Q415.26 486.75 417.58 485.09Q419.89 483.43 421.12 480.31Q422.36 477.19 422.36 472.79L422.36 472.71Q422.36 468.31 421.12 465.21Q419.89 462.10 417.58 460.44Q415.26 458.79 411.98 458.79Q408.74 458.79 406.43 460.44Q404.11 462.10 402.88 465.21Q401.64 468.31 401.64 472.71L401.64 472.79Q401.64 477.22 402.88 480.35Q404.11 483.47 406.43 485.11Q408.74 486.75 411.98 486.75M450.56 493.69L440.95 493.69L440.95 451.84L450.56 451.84L450.56 458.40L451.10 458.40Q452.45 454.93 455.47 452.96Q458.50 450.99 462.63 450.99Q465.48 450.99 467.78 451.94Q470.08 452.88 471.71 454.62Q473.35 456.36 474.20 458.79L474.78 458.79Q475.78 456.43 477.67 454.68Q479.56 452.92 482.09 451.96Q484.62 450.99 487.55 450.99Q491.75 450.99 494.76 452.69Q497.77 454.39 499.41 457.49Q501.05 460.60 501.05 464.92L501.05 493.69L491.45 493.69L491.45 467.27Q491.45 464.57 490.62 462.76Q489.79 460.95 488.11 460.02Q486.43 459.09 483.88 459.09Q481.45 459.09 479.62 460.21Q477.79 461.33 476.77 463.24Q475.75 465.15 475.75 467.62L475.75 493.69L466.22 493.69L466.22 466.62Q466.22 464.26 465.31 462.58Q464.40 460.91 462.73 460Q461.05 459.09 458.70 459.09Q456.34 459.09 454.49 460.29Q452.64 461.49 451.60 463.53Q450.56 465.57 450.56 468.16L450.56 493.69M523.15 494.39Q519.14 494.39 516.02 492.85Q512.89 491.30 511.12 488.47Q509.34 485.63 509.34 481.85L509.34 481.78Q509.34 478.03 511.20 475.35Q513.05 472.67 516.60 471.13Q520.14 469.59 525.20 469.28L540.82 468.35L540.82 474.68L526.59 475.60Q522.65 475.80 520.74 477.28Q518.83 478.77 518.83 481.31L518.83 481.39Q518.83 484.05 520.86 485.56Q522.88 487.06 526.05 487.06Q528.94 487.06 531.18 485.90Q533.41 484.75 534.73 482.76Q536.04 480.77 536.04 478.30L536.04 465.23Q536.04 462.06 534.03 460.35Q532.03 458.63 528.21 458.63Q524.85 458.63 522.79 459.85Q520.72 461.06 520.03 463.18L519.99 463.38L510.96 463.38L511 463.03Q511.47 459.44 513.72 456.74Q515.98 454.04 519.78 452.52Q523.58 450.99 528.63 450.99Q533.99 450.99 537.77 452.69Q541.55 454.39 543.56 457.53Q545.56 460.68 545.56 465.07L545.56 493.69L536.04 493.69L536.04 487.79L535.46 487.79Q534.30 489.84 532.47 491.32Q530.64 492.81 528.28 493.60Q525.93 494.39 523.15 494.39M565.89 493.69L556.29 493.69L556.29 451.84L565.89 451.84L565.89 493.69M561.11 445.05Q558.80 445.05 557.14 443.41Q555.48 441.77 555.48 439.50Q555.48 437.18 557.14 435.56Q558.80 433.94 561.11 433.94Q563.42 433.94 565.08 435.56Q566.74 437.18 566.74 439.50Q566.74 441.77 565.08 443.41Q563.42 445.05 561.11 445.05M586.42 493.69L576.81 493.69L576.81 451.84L586.42 451.84L586.42 458.28L586.96 458.28Q588.50 454.89 591.56 452.94Q594.63 450.99 599.22 450.99Q606.20 450.99 609.93 455.08Q613.65 459.17 613.65 466.62L613.65 493.69L604.04 493.69L604.04 468.78Q604.04 463.99 601.98 461.54Q599.92 459.09 595.63 459.09Q592.78 459.09 590.72 460.37Q588.65 461.64 587.53 463.92Q586.42 466.19 586.42 469.32"/>
	<path class="ue-key" d="M1344.34 494.97Q1337.90 494.97 1333.14 493Q1328.37 491.03 1325.62 487.45Q1322.86 483.86 1322.51 479L1322.47 478.46L1332.12 478.46L1332.15 478.88Q1332.42 481.24 1334.06 482.97Q1335.70 484.71 1338.42 485.67Q1341.14 486.64 1344.65 486.64Q1348.09 486.64 1350.65 485.61Q1353.22 484.59 1354.66 482.76Q1356.11 480.93 1356.11 478.57L1356.11 478.54Q1356.11 475.49 1353.78 473.60Q1351.44 471.71 1346.04 470.55L1340.06 469.32Q1334.43 468.12 1330.80 465.96Q1327.18 463.80 1325.44 460.66Q1323.71 457.51 1323.71 453.38L1323.71 453.35Q1323.75 448.37 1326.39 444.65Q1329.03 440.93 1333.68 438.84Q1338.33 436.76 1344.34 436.76Q1350.48 436.76 1354.99 438.80Q1359.50 440.85 1362.09 444.40Q1364.67 447.95 1365.02 452.50L1365.06 453.04L1355.53 453.04L1355.45 452.57Q1355.11 450.34 1353.66 448.66Q1352.21 446.98 1349.82 446.04Q1347.43 445.09 1344.27 445.09Q1341.14 445.09 1338.77 446.04Q1336.40 446.98 1335.05 448.68Q1333.70 450.38 1333.70 452.73L1333.70 452.77Q1333.70 454.74 1334.70 456.22Q1335.70 457.71 1337.86 458.77Q1340.02 459.83 1343.46 460.56L1349.44 461.83Q1355.30 463.07 1358.96 465.11Q1362.63 467.16 1364.36 470.20Q1366.10 473.25 1366.10 477.49L1366.10 477.53Q1366.10 482.89 1363.46 486.81Q1360.82 490.72 1355.94 492.85Q1351.06 494.97 1344.34 494.97M1393.41 494.54Q1387.20 494.54 1382.71 491.90Q1378.21 489.26 1375.80 484.40Q1373.39 479.54 1373.39 472.86L1373.39 472.83Q1373.39 466.23 1375.80 461.33Q1378.21 456.43 1382.61 453.71Q1387.01 450.99 1392.99 450.99Q1398.93 450.99 1403.27 453.62Q1407.61 456.24 1409.94 460.96Q1412.27 465.69 1412.27 472.02L1412.27 475.18L1378.21 475.18L1378.21 468.74L1407.61 468.74L1403.02 474.76L1403.02 470.94Q1403.02 466.77 1401.74 464.03Q1400.47 461.29 1398.25 459.90Q1396.03 458.52 1393.10 458.52Q1390.17 458.52 1387.89 459.94Q1385.62 461.37 1384.29 464.15Q1382.96 466.92 1382.96 470.94L1382.96 474.76Q1382.96 478.61 1384.25 481.35Q1385.54 484.09 1387.95 485.56Q1390.36 487.02 1393.64 487.02Q1396.19 487.02 1398.04 486.27Q1399.89 485.52 1401.05 484.42Q1402.21 483.32 1402.67 482.28L1402.78 482.01L1411.85 482.01L1411.77 482.35Q1411.27 484.48 1409.92 486.62Q1408.57 488.76 1406.33 490.55Q1404.10 492.34 1400.87 493.44Q1397.65 494.54 1393.41 494.54M1439.16 494.54Q1432.87 494.54 1428.38 491.92Q1423.88 489.30 1421.47 484.40Q1419.06 479.50 1419.06 472.71L1419.06 472.63Q1419.06 465.88 1421.47 461.04Q1423.88 456.20 1428.38 453.60Q1432.87 450.99 1439.12 450.99Q1444.52 450.99 1448.44 452.92Q1452.35 454.85 1454.63 458.17Q1456.90 461.49 1457.41 465.81L1457.41 466L1448.34 466L1448.30 465.84Q1447.68 462.80 1445.37 460.79Q1443.06 458.79 1439.16 458.79Q1435.92 458.79 1433.62 460.44Q1431.33 462.10 1430.09 465.19Q1428.86 468.27 1428.86 472.63L1428.86 472.71Q1428.86 477.15 1430.09 480.29Q1431.33 483.43 1433.64 485.09Q1435.96 486.75 1439.16 486.75Q1442.90 486.75 1445.18 485Q1447.45 483.24 1448.30 479.96L1448.38 479.73L1457.41 479.73L1457.37 480Q1456.75 484.28 1454.45 487.56Q1452.16 490.84 1448.30 492.69Q1444.44 494.54 1439.16 494.54M1475.38 493.69L1465.78 493.69L1465.78 451.84L1475.38 451.84L1475.38 458.44L1475.92 458.44Q1476.96 454.97 1479.70 453.04Q1482.44 451.11 1486.41 451.11Q1487.49 451.11 1488.48 451.24Q1489.46 451.38 1490.12 451.53L1490.12 460.17Q1489.07 459.90 1487.94 459.77Q1486.80 459.63 1485.56 459.63Q1482.48 459.63 1480.18 460.81Q1477.89 461.99 1476.63 464.17Q1475.38 466.35 1475.38 469.39L1475.38 493.69M1515.27 494.54Q1509.06 494.54 1504.56 491.90Q1500.07 489.26 1497.66 484.40Q1495.25 479.54 1495.25 472.86L1495.25 472.83Q1495.25 466.23 1497.66 461.33Q1500.07 456.43 1504.47 453.71Q1508.86 450.99 1514.84 450.99Q1520.78 450.99 1525.12 453.62Q1529.46 456.24 1531.80 460.96Q1534.13 465.69 1534.13 472.02L1534.13 475.18L1500.07 475.18L1500.07 468.74L1529.46 468.74L1524.87 474.76L1524.87 470.94Q1524.87 466.77 1523.60 464.03Q1522.33 461.29 1520.11 459.90Q1517.89 458.52 1514.96 458.52Q1512.03 458.52 1509.75 459.94Q1507.47 461.37 1506.14 464.15Q1504.81 466.92 1504.81 470.94L1504.81 474.76Q1504.81 478.61 1506.10 481.35Q1507.40 484.09 1509.81 485.56Q1512.22 487.02 1515.50 487.02Q1518.04 487.02 1519.90 486.27Q1521.75 485.52 1522.90 484.42Q1524.06 483.32 1524.52 482.28L1524.64 482.01L1533.70 482.01L1533.63 482.35Q1533.13 484.48 1531.78 486.62Q1530.43 488.76 1528.19 490.55Q1525.95 492.34 1522.73 493.44Q1519.51 494.54 1515.27 494.54M1559.16 494.04Q1552.14 494.04 1548.96 491.36Q1545.78 488.68 1545.78 482.51L1545.78 459.25L1539.41 459.25L1539.41 451.84L1545.78 451.84L1545.78 441.47L1555.54 441.47L1555.54 451.84L1564.10 451.84L1564.10 459.25L1555.54 459.25L1555.54 480.62Q1555.54 483.70 1556.87 485.07Q1558.20 486.44 1561.09 486.44Q1562.02 486.44 1562.69 486.39Q1563.37 486.33 1564.10 486.29L1564.10 493.62Q1563.14 493.77 1561.86 493.91Q1560.59 494.04 1559.16 494.04M1603.76 493.69L1593.80 493.69L1593.80 438.03L1603.76 438.03L1603.76 493.69M1637.32 493.69L1616.56 493.69L1616.56 438.03L1637.32 438.03Q1645.61 438.03 1651.47 441.27Q1657.34 444.51 1660.44 450.68Q1663.55 456.86 1663.55 465.61L1663.55 465.69Q1663.55 474.56 1660.44 480.83Q1657.34 487.10 1651.49 490.40Q1645.65 493.69 1637.32 493.69M1626.51 446.40L1626.51 485.32L1636.04 485.32Q1641.60 485.32 1645.47 483.05Q1649.35 480.77 1651.38 476.41Q1653.40 472.05 1653.40 465.81L1653.40 465.73Q1653.40 459.60 1651.36 455.28Q1649.31 450.95 1645.42 448.68Q1641.52 446.40 1636.04 446.40"/>
	<path class="ue-base" d="M1703.66 435.87L1712.53 435.87L1696.41 507.58L1687.54 507.58"/>
	<path class="ue-key" d="M1774.79 493.69L1738.77 493.69L1738.77 438.03L1774.79 438.03L1774.79 446.40L1748.72 446.40L1748.72 461.45L1773.37 461.45L1773.37 469.39L1748.72 469.39L1748.72 485.32L1774.79 485.32L1774.79 493.69M1794.85 493.69L1785.25 493.69L1785.25 451.84L1794.85 451.84L1794.85 458.28L1795.39 458.28Q1796.94 454.89 1800 452.94Q1803.07 450.99 1807.66 450.99Q1814.64 450.99 1818.36 455.08Q1822.09 459.17 1822.09 466.62L1822.09 493.69L1812.48 493.69L1812.48 468.78Q1812.48 463.99 1810.42 461.54Q1808.35 459.09 1804.07 459.09Q1801.22 459.09 1799.15 460.37Q1797.09 461.64 1795.97 463.92Q1794.85 466.19 1794.85 469.32L1794.85 493.69M1850.63 494.54Q1844.34 494.54 1839.85 491.92Q1835.36 489.30 1832.94 484.40Q1830.53 479.50 1830.53 472.71L1830.53 472.63Q1830.53 465.88 1832.94 461.04Q1835.36 456.20 1839.85 453.60Q1844.34 450.99 1850.59 450.99Q1855.99 450.99 1859.91 452.92Q1863.82 454.85 1866.10 458.17Q1868.37 461.49 1868.88 465.81L1868.88 466L1859.81 466L1859.77 465.84Q1859.16 462.80 1856.84 460.79Q1854.53 458.79 1850.63 458.79Q1847.39 458.79 1845.10 460.44Q1842.80 462.10 1841.57 465.19Q1840.33 468.27 1840.33 472.63L1840.33 472.71Q1840.33 477.15 1841.57 480.29Q1842.80 483.43 1845.11 485.09Q1847.43 486.75 1850.63 486.75Q1854.37 486.75 1856.65 485Q1858.92 483.24 1859.77 479.96L1859.85 479.73L1868.88 479.73L1868.84 480Q1868.22 484.28 1865.93 487.56Q1863.63 490.84 1859.77 492.69Q1855.92 494.54 1850.63 494.54M1886.85 493.69L1877.25 493.69L1877.25 451.84L1886.85 451.84L1886.85 458.44L1887.39 458.44Q1888.43 454.97 1891.17 453.04Q1893.91 451.11 1897.88 451.11Q1898.96 451.11 1899.95 451.24Q1900.93 451.38 1901.59 451.53L1901.59 460.17Q1900.55 459.90 1899.41 459.77Q1898.27 459.63 1897.04 459.63Q1893.95 459.63 1891.65 460.81Q1889.36 461.99 1888.11 464.17Q1886.85 466.35 1886.85 469.39L1886.85 493.69M1913.47 508.24Q1912.47 508.24 1911.42 508.16Q1910.38 508.08 1909.49 508.01L1909.49 500.64Q1910.07 500.72 1910.84 500.77Q1911.62 500.83 1912.43 500.83Q1915.36 500.83 1917.11 499.62Q1918.87 498.40 1919.68 495.59L1920.22 493.73L1905.21 451.84L1915.67 451.84L1926.58 488.53L1924.23 484.75L1927.24 484.75L1924.96 488.53L1935.84 451.84L1945.95 451.84L1930.94 494.74Q1929.17 499.79 1926.85 502.76Q1924.54 505.73 1921.30 506.98Q1918.06 508.24 1913.47 508.24M1962.84 507.58L1953.24 507.58L1953.24 451.84L1962.84 451.84L1962.84 458.55L1963.38 458.55Q1964.58 456.20 1966.43 454.56Q1968.28 452.92 1970.75 452.02Q1973.22 451.11 1976.15 451.11Q1981.44 451.11 1985.29 453.75Q1989.15 456.39 1991.27 461.23Q1993.39 466.08 1993.39 472.75L1993.39 472.79Q1993.39 479.50 1991.29 484.34Q1989.19 489.18 1985.33 491.80Q1981.47 494.43 1976.19 494.43Q1973.30 494.43 1970.81 493.50Q1968.32 492.58 1966.41 490.92Q1964.50 489.26 1963.38 486.94L1962.84 486.94L1962.84 507.58M1973.22 486.33Q1976.46 486.33 1978.77 484.69Q1981.09 483.05 1982.34 480.02Q1983.60 476.99 1983.60 472.79L1983.60 472.75Q1983.60 468.51 1982.34 465.48Q1981.09 462.45 1978.77 460.83Q1976.46 459.21 1973.22 459.21Q1970.02 459.21 1967.65 460.85Q1965.27 462.49 1964 465.52Q1962.73 468.54 1962.73 472.75L1962.73 472.79Q1962.73 476.95 1964.02 480Q1965.31 483.05 1967.66 484.69Q1970.02 486.33 1973.22 486.33M2018.47 494.04Q2011.45 494.04 2008.26 491.36Q2005.08 488.68 2005.08 482.51L2005.08 459.25L1998.72 459.25L1998.72 451.84L2005.08 451.84L2005.08 441.47L2014.84 441.47L2014.84 451.84L2023.40 451.84L2023.40 459.25L2014.84 459.25L2014.84 480.62Q2014.84 483.70 2016.17 485.07Q2017.50 486.44 2020.40 486.44Q2021.32 486.44 2022 486.39Q2022.67 486.33 2023.40 486.29L2023.40 493.62Q2022.44 493.77 2021.17 493.91Q2019.89 494.04 2018.47 494.04M2042.04 493.69L2032.43 493.69L2032.43 451.84L2042.04 451.84L2042.04 493.69M2037.25 445.05Q2034.94 445.05 2033.28 443.41Q2031.62 441.77 2031.62 439.50Q2031.62 437.18 2033.28 435.56Q2034.94 433.94 2037.25 433.94Q2039.57 433.94 2041.23 435.56Q2042.88 437.18 2042.88 439.50Q2042.88 441.77 2041.23 443.41Q2039.57 445.05 2037.25 445.05M2071.12 494.54Q2064.91 494.54 2060.38 491.92Q2055.85 489.30 2053.40 484.42Q2050.95 479.54 2050.95 472.79L2050.95 472.71Q2050.95 466 2053.42 461.12Q2055.88 456.24 2060.42 453.62Q2064.95 450.99 2071.12 450.99Q2077.33 450.99 2081.84 453.62Q2086.36 456.24 2088.83 461.10Q2091.30 465.96 2091.30 472.71L2091.30 472.79Q2091.30 479.54 2088.85 484.42Q2086.40 489.30 2081.88 491.92Q2077.37 494.54 2071.12 494.54M2071.12 486.75Q2074.40 486.75 2076.71 485.09Q2079.03 483.43 2080.26 480.31Q2081.50 477.19 2081.50 472.79L2081.50 472.71Q2081.50 468.31 2080.26 465.21Q2079.03 462.10 2076.71 460.44Q2074.40 458.79 2071.12 458.79Q2067.88 458.79 2065.57 460.44Q2063.25 462.10 2062.02 465.21Q2060.78 468.31 2060.78 472.71L2060.78 472.79Q2060.78 477.22 2062.02 480.35Q2063.25 483.47 2065.57 485.11Q2067.88 486.75 2071.12 486.75M2109.70 493.69L2100.09 493.69L2100.09 451.84L2109.70 451.84L2109.70 458.28L2110.24 458.28Q2111.78 454.89 2114.84 452.94Q2117.91 450.99 2122.50 450.99Q2129.48 450.99 2133.21 455.08Q2136.93 459.17 2136.93 466.62L2136.93 493.69L2127.32 493.69L2127.32 468.78Q2127.32 463.99 2125.26 461.54Q2123.20 459.09 2118.91 459.09Q2116.06 459.09 2114 460.37Q2111.93 461.64 2110.81 463.92Q2109.70 466.19 2109.70 469.32L2109.70 493.69M2185.76 466.89L2177.47 476.61L2177.12 463.88L2178.70 463.88L2200.58 438.03L2211.99 438.03L2190.39 463.14L2185.76 466.89M2178.16 493.69L2168.21 493.69L2168.21 438.03L2178.16 438.03L2178.16 493.69M2213.65 493.69L2201.50 493.69L2183.14 467.77L2190.24 461.18L2213.65 493.69M2238.73 494.54Q2232.52 494.54 2228.02 491.90Q2223.53 489.26 2221.12 484.40Q2218.71 479.54 2218.71 472.86L2218.71 472.83Q2218.71 466.23 2221.12 461.33Q2223.53 456.43 2227.93 453.71Q2232.32 450.99 2238.30 450.99Q2244.24 450.99 2248.58 453.62Q2252.92 456.24 2255.25 460.96Q2257.59 465.69 2257.59 472.02L2257.59 475.18L2223.53 475.18L2223.53 468.74L2252.92 468.74L2248.33 474.76L2248.33 470.94Q2248.33 466.77 2247.06 464.03Q2245.78 461.29 2243.57 459.90Q2241.35 458.52 2238.42 458.52Q2235.49 458.52 2233.21 459.94Q2230.93 461.37 2229.60 464.15Q2228.27 466.92 2228.27 470.94L2228.27 474.76Q2228.27 478.61 2229.56 481.35Q2230.86 484.09 2233.27 485.56Q2235.68 487.02 2238.96 487.02Q2241.50 487.02 2243.35 486.27Q2245.21 485.52 2246.36 484.42Q2247.52 483.32 2247.98 482.28L2248.10 482.01L2257.16 482.01L2257.09 482.35Q2256.59 484.48 2255.24 486.62Q2253.89 488.76 2251.65 490.55Q2249.41 492.34 2246.19 493.44Q2242.97 494.54 2238.73 494.54M2271.13 508.24Q2270.13 508.24 2269.08 508.16Q2268.04 508.08 2267.16 508.01L2267.16 500.64Q2267.73 500.72 2268.51 500.77Q2269.28 500.83 2270.09 500.83Q2273.02 500.83 2274.77 499.62Q2276.53 498.40 2277.34 495.59L2277.88 493.73L2262.87 451.84L2273.33 451.84L2284.24 488.53L2281.89 484.75L2284.90 484.75L2282.62 488.53L2293.50 451.84L2303.61 451.84L2288.60 494.74Q2286.83 499.79 2284.51 502.76Q2282.20 505.73 2278.96 506.98Q2275.72 508.24 2271.13 508.24"/>
</svg>
