<?xml version="1.0" encoding="UTF-8"?>
<svg xmlns="http://www.w3.org/2000/svg" viewBox="-24 0 2764 550" role="img" aria-label="Anatomy of a secret link https://secrets.levine.io/s#… : the domain identifies the service, while the Secret ID and encryption key live in the URL fragment after the # and are never sent to the server.">
	<defs>
		<style>
			/* Decorative — real glyphs baked to paths (SF Pro), so the
			   illustration renders identically everywhere and never wraps.
			   The key highlight uses --color-accent (the brand-accent role,
			   theme-driven via Appearance), matching the upstream original. */
			.ue-base { fill: currentColor; }
			.ue-key { fill: var(--color-accent); }
			.ue-brace { fill: none; stroke: currentColor; stroke-opacity: 0.5; stroke-width: 10; stroke-linecap: round; stroke-linejoin: round; }
			.ue-brace-key { fill: none; stroke: var(--color-accent); stroke-width: 10; stroke-linecap: round; stroke-linejoin: round; }
		</style>
	</defs>
	<path class="ue-base" d="M43.24 187.50L28.98 187.50L28.98 117.04L43.24 117.04L43.24 144.19L43.53 144.19Q45.58 139.31 49.66 136.69Q53.74 134.08 59.60 134.08Q65.31 134.08 69.41 136.60Q73.51 139.11 75.73 143.70Q77.96 148.29 77.96 154.64L77.96 187.50L63.70 187.50L63.70 157.57Q63.70 152.10 61.08 149Q58.47 145.90 53.59 145.90Q50.46 145.90 48.15 147.39Q45.83 148.88 44.53 151.49Q43.24 154.10 43.24 157.52L43.24 187.50M107.89 188.57Q99.20 188.57 95 184.91Q90.80 181.25 90.80 172.85L90.80 145.90L83.52 145.90L83.52 135.16L90.80 135.16L90.80 122.36L105.20 122.36L105.20 135.16L114.77 135.16L114.77 145.90L105.20 145.90L105.20 171.29Q105.20 174.95 106.84 176.39Q108.47 177.83 111.70 177.83Q112.67 177.83 113.40 177.76Q114.14 177.69 114.77 177.59L114.77 188.04Q113.60 188.23 111.87 188.40Q110.13 188.57 107.89 188.57M143.43 188.57Q134.74 188.57 130.54 184.91Q126.34 181.25 126.34 172.85L126.34 145.90L119.07 145.90L119.07 135.16L126.34 135.16L126.34 122.36L140.75 122.36L140.75 135.16L150.32 135.16L150.32 145.90L140.75 145.90L140.75 171.29Q140.75 174.95 142.38 176.39Q144.02 177.83 147.24 177.83Q148.22 177.83 148.95 177.76Q149.68 177.69 150.32 177.59L150.32 188.04Q149.15 188.23 147.41 188.40Q145.68 188.57 143.43 188.57M172.44 204.59L158.18 204.59L158.18 135.16L172.44 135.16L172.44 144.29L172.78 144.29Q174.20 141.11 176.51 138.82Q178.83 136.52 181.93 135.30Q185.04 134.08 188.75 134.08Q195.39 134.08 200.17 137.33Q204.96 140.58 207.54 146.68Q210.13 152.78 210.13 161.28L210.13 161.33Q210.13 169.82 207.57 175.93Q205.01 182.03 200.27 185.30Q195.53 188.57 188.94 188.57Q185.23 188.57 182.06 187.35Q178.88 186.13 176.54 183.91Q174.20 181.69 172.73 178.56L172.44 178.56L172.44 204.59M184.06 176.76Q187.62 176.76 190.21 174.88Q192.80 173 194.21 169.53Q195.63 166.06 195.63 161.33L195.63 161.28Q195.63 156.49 194.21 153.03Q192.80 149.56 190.19 147.73Q187.57 145.90 184.06 145.90Q180.59 145.90 177.96 147.78Q175.32 149.66 173.85 153.10Q172.39 156.54 172.39 161.33L172.39 161.38Q172.39 166.06 173.88 169.53Q175.37 173 177.98 174.88Q180.59 176.76 184.06 176.76M239.04 188.57Q231.81 188.57 226.73 186.47Q221.66 184.38 218.80 180.64Q215.94 176.90 215.36 171.97L215.31 171.53L229.22 171.53L229.32 171.97Q230.01 175.05 232.40 176.76Q234.79 178.47 239.04 178.47Q241.77 178.47 243.68 177.81Q245.58 177.15 246.63 175.93Q247.68 174.71 247.68 173L247.68 172.95Q247.68 170.85 246.17 169.58Q244.65 168.31 240.80 167.43L231.91 165.58Q226.83 164.50 223.44 162.48Q220.04 160.45 218.34 157.45Q216.63 154.44 216.63 150.54L216.63 150.49Q216.63 145.46 219.31 141.80Q222 138.13 226.95 136.11Q231.91 134.08 238.55 134.08Q245.48 134.08 250.34 136.30Q255.20 138.53 257.81 142.29Q260.43 146.04 260.57 150.63L260.57 151.12L247.44 151.12L247.39 150.73Q247.05 147.90 244.78 146.02Q242.51 144.14 238.55 144.14Q236.11 144.14 234.30 144.82Q232.50 145.51 231.52 146.75Q230.54 148 230.54 149.71L230.54 149.76Q230.54 151.07 231.20 152.12Q231.86 153.17 233.42 153.96Q234.99 154.74 237.62 155.32L246.51 157.23Q251.98 158.35 255.37 160.25Q258.77 162.16 260.35 164.92Q261.94 167.68 261.94 171.53L261.94 171.58Q261.94 176.71 259.01 180.52Q256.08 184.33 250.93 186.45Q245.78 188.57 239.04 188.57M276.39 188.33Q273.07 188.33 270.78 186.04Q268.48 183.74 268.48 180.42Q268.48 177.10 270.78 174.80Q273.07 172.51 276.39 172.51Q279.71 172.51 282.01 174.80Q284.30 177.10 284.30 180.42Q284.30 183.74 282.01 186.04Q279.71 188.33 276.39 188.33M276.39 153.56Q273.07 153.56 270.78 151.27Q268.48 148.97 268.48 145.65Q268.48 142.33 270.78 140.04Q273.07 137.74 276.39 137.74Q279.71 137.74 282.01 140.04Q284.30 142.33 284.30 145.65Q284.30 148.97 282.01 151.27Q279.71 153.56 276.39 153.56M306.08 117.04L318.73 117.04L301.10 204.59L288.40 204.59L306.08 117.04M336.35 117.04L349 117.04L331.37 204.59L318.68 204.59L336.35 117.04M375.12 188.57Q367.90 188.57 362.82 186.47Q357.74 184.38 354.88 180.64Q352.03 176.90 351.44 171.97L351.39 171.53L365.31 171.53L365.41 171.97Q366.09 175.05 368.48 176.76Q370.88 178.47 375.12 178.47Q377.86 178.47 379.76 177.81Q381.67 177.15 382.72 175.93Q383.77 174.71 383.77 173L383.77 172.95Q383.77 170.85 382.25 169.58Q380.74 168.31 376.88 167.43L367.99 165.58Q362.92 164.50 359.52 162.48Q356.13 160.45 354.42 157.45Q352.71 154.44 352.71 150.54L352.71 150.49Q352.71 145.46 355.40 141.80Q358.08 138.13 363.04 136.11Q367.99 134.08 374.63 134.08Q381.57 134.08 386.43 136.30Q391.29 138.53 393.90 142.29Q396.51 146.04 396.66 150.63L396.66 151.12L383.52 151.12L383.47 150.73Q383.13 147.90 380.86 146.02Q378.59 144.14 374.63 144.14Q372.19 144.14 370.39 144.82Q368.58 145.51 367.60 146.75Q366.63 148 366.63 149.71L366.63 149.76Q366.63 151.07 367.29 152.12Q367.95 153.17 369.51 153.96Q371.07 154.74 373.71 155.32L382.59 157.23Q388.06 158.35 391.46 160.25Q394.85 162.16 396.44 164.92Q398.02 167.68 398.02 171.53L398.02 171.58Q398.02 176.71 395.09 180.52Q392.16 184.33 387.01 186.45Q381.86 188.57 375.12 188.57M428.88 188.57Q420.88 188.57 415.11 185.28Q409.35 181.98 406.25 175.88Q403.15 169.78 403.15 161.43L403.15 161.38Q403.15 153.03 406.25 146.90Q409.35 140.77 414.99 137.43Q420.63 134.08 428.30 134.08Q435.96 134.08 441.55 137.33Q447.14 140.58 450.20 146.48Q453.25 152.39 453.25 160.30L453.25 164.70L410.13 164.70L410.13 155.71L446.51 155.71L439.72 164.11L439.72 158.64Q439.72 154.05 438.31 150.95Q436.89 147.85 434.38 146.29Q431.86 144.73 428.54 144.73Q425.22 144.73 422.66 146.34Q420.09 147.95 418.65 151.05Q417.21 154.15 417.21 158.64L417.21 164.16Q417.21 168.51 418.65 171.58Q420.09 174.66 422.78 176.29Q425.46 177.93 429.18 177.93Q432.11 177.93 434.25 177Q436.40 176.07 437.77 174.66Q439.14 173.24 439.63 171.78L439.72 171.48L452.81 171.48L452.66 172.02Q452.08 174.90 450.37 177.83Q448.66 180.76 445.75 183.20Q442.85 185.64 438.67 187.11Q434.50 188.57 428.88 188.57M484.50 188.57Q476.54 188.57 470.73 185.25Q464.92 181.93 461.79 175.81Q458.67 169.68 458.67 161.28L458.67 161.23Q458.67 152.83 461.82 146.75Q464.97 140.67 470.75 137.38Q476.54 134.08 484.35 134.08Q491.48 134.08 496.71 136.74Q501.93 139.40 504.88 143.95Q507.84 148.49 508.13 154.15L508.13 154.49L494.90 154.49L494.80 154.05Q494.17 150.29 491.58 147.78Q488.99 145.26 484.55 145.26Q481.08 145.26 478.52 147.19Q475.95 149.12 474.56 152.71Q473.17 156.30 473.17 161.28L473.17 161.33Q473.17 166.46 474.56 170.04Q475.95 173.63 478.52 175.51Q481.08 177.39 484.60 177.39Q488.89 177.39 491.50 174.98Q494.12 172.56 494.85 168.60L494.90 168.16L508.18 168.16L508.18 168.46Q507.84 174.17 504.86 178.71Q501.88 183.25 496.68 185.91Q491.48 188.57 484.50 188.57M529.32 187.50L515.06 187.50L515.06 135.16L529.32 135.16L529.32 144.29L529.62 144.29Q530.79 139.45 533.86 136.77Q536.94 134.08 541.53 134.08Q542.70 134.08 543.78 134.23Q544.85 134.38 545.63 134.62L545.63 147.17Q544.75 146.83 543.38 146.61Q542.02 146.39 540.46 146.39Q536.94 146.39 534.45 147.75Q531.96 149.12 530.64 151.76Q529.32 154.39 529.32 158.20L529.32 187.50M575.27 188.57Q567.26 188.57 561.50 185.28Q555.74 181.98 552.64 175.88Q549.54 169.78 549.54 161.43L549.54 161.38Q549.54 153.03 552.64 146.90Q555.74 140.77 561.38 137.43Q567.02 134.08 574.68 134.08Q582.35 134.08 587.94 137.33Q593.53 140.58 596.58 146.48Q599.63 152.39 599.63 160.30L599.63 164.70L556.52 164.70L556.52 155.71L592.90 155.71L586.11 164.11L586.11 158.64Q586.11 154.05 584.69 150.95Q583.28 147.85 580.76 146.29Q578.25 144.73 574.93 144.73Q571.61 144.73 569.04 146.34Q566.48 147.95 565.04 151.05Q563.60 154.15 563.60 158.64L563.60 164.16Q563.60 168.51 565.04 171.58Q566.48 174.66 569.17 176.29Q571.85 177.93 575.56 177.93Q578.49 177.93 580.64 177Q582.79 176.07 584.16 174.66Q585.52 173.24 586.01 171.78L586.11 171.48L599.20 171.48L599.05 172.02Q598.46 174.90 596.75 177.83Q595.04 180.76 592.14 183.20Q589.23 185.64 585.06 187.11Q580.88 188.57 575.27 188.57M627.76 188.57Q619.07 188.57 614.87 184.91Q610.67 181.25 610.67 172.85L610.67 145.90L603.39 145.90L603.39 135.16L610.67 135.16L610.67 122.36L625.07 122.36L625.07 135.16L634.64 135.16L634.64 145.90L625.07 145.90L625.07 171.29Q625.07 174.95 626.71 176.39Q628.35 177.83 631.57 177.83Q632.54 177.83 633.28 177.76Q634.01 177.69 634.64 177.59L634.64 188.04Q633.47 188.23 631.74 188.40Q630.01 188.57 627.76 188.57M664.04 188.57Q656.81 188.57 651.73 186.47Q646.66 184.38 643.80 180.64Q640.94 176.90 640.36 171.97L640.31 171.53L654.22 171.53L654.32 171.97Q655.01 175.05 657.40 176.76Q659.79 178.47 664.04 178.47Q666.77 178.47 668.68 177.81Q670.58 177.15 671.63 175.93Q672.68 174.71 672.68 173L672.68 172.95Q672.68 170.85 671.17 169.58Q669.65 168.31 665.80 167.43L656.91 165.58Q651.83 164.50 648.44 162.48Q645.04 160.45 643.34 157.45Q641.63 154.44 641.63 150.54L641.63 150.49Q641.63 145.46 644.31 141.80Q647 138.13 651.95 136.11Q656.91 134.08 663.55 134.08Q670.48 134.08 675.34 136.30Q680.20 138.53 682.81 142.29Q685.43 146.04 685.57 150.63L685.57 151.12L672.44 151.12L672.39 150.73Q672.05 147.90 669.78 146.02Q667.51 144.14 663.55 144.14Q661.11 144.14 659.30 144.82Q657.50 145.51 656.52 146.75Q655.54 148 655.54 149.71L655.54 149.76Q655.54 151.07 656.20 152.12Q656.86 153.17 658.42 153.96Q659.99 154.74 662.62 155.32L671.51 157.23Q676.98 158.35 680.37 160.25Q683.77 162.16 685.35 164.92Q686.94 167.68 686.94 171.53L686.94 171.58Q686.94 176.71 684.01 180.52Q681.08 184.33 675.93 186.45Q670.78 188.57 664.04 188.57M701.39 188.33Q698.07 188.33 695.78 186.04Q693.48 183.74 693.48 180.42Q693.48 177.10 695.78 174.80Q698.07 172.51 701.39 172.51Q704.71 172.51 707.01 174.80Q709.30 177.10 709.30 180.42Q709.30 183.74 707.01 186.04Q704.71 188.33 701.39 188.33M732.64 187.50L718.38 187.50L718.38 117.04L732.64 117.04L732.64 187.50M766.09 188.57Q758.08 188.57 752.32 185.28Q746.56 181.98 743.46 175.88Q740.36 169.78 740.36 161.43L740.36 161.38Q740.36 153.03 743.46 146.90Q746.56 140.77 752.20 137.43Q757.84 134.08 765.50 134.08Q773.17 134.08 778.76 137.33Q784.35 140.58 787.40 146.48Q790.46 152.39 790.46 160.30L790.46 164.70L747.34 164.70L747.34 155.71L783.72 155.71L776.93 164.11L776.93 158.64Q776.93 154.05 775.51 150.95Q774.10 147.85 771.58 146.29Q769.07 144.73 765.75 144.73Q762.43 144.73 759.86 146.34Q757.30 147.95 755.86 151.05Q754.42 154.15 754.42 158.64L754.42 164.16Q754.42 168.51 755.86 171.58Q757.30 174.66 759.99 176.29Q762.67 177.93 766.38 177.93Q769.31 177.93 771.46 177Q773.61 176.07 774.98 174.66Q776.34 173.24 776.83 171.78L776.93 171.48L790.02 171.48L789.87 172.02Q789.28 174.90 787.57 177.83Q785.87 180.76 782.96 183.20Q780.05 185.64 775.88 187.11Q771.71 188.57 766.09 188.57M827.66 187.50L811.60 187.50L793.48 135.16L808.72 135.16L819.65 174.90L819.95 174.90L830.74 135.16L845.63 135.16L827.66 187.50M865.16 187.50L850.90 187.50L850.90 135.16L865.16 135.16L865.16 187.50M858.03 128.42Q854.81 128.42 852.61 126.22Q850.42 124.02 850.42 121Q850.42 117.92 852.61 115.75Q854.81 113.57 858.03 113.57Q861.26 113.57 863.45 115.75Q865.65 117.92 865.65 121Q865.65 124.02 863.45 126.22Q861.26 128.42 858.03 128.42M888.94 187.50L874.68 187.50L874.68 135.16L888.94 135.16L888.94 143.75L889.23 143.75Q891.29 139.26 895.29 136.67Q899.29 134.08 905.20 134.08Q913.84 134.08 918.56 139.28Q923.27 144.48 923.27 153.71L923.27 187.50L909.01 187.50L909.01 156.64Q909.01 151.51 906.59 148.71Q904.18 145.90 899.39 145.90Q896.22 145.90 893.87 147.34Q891.53 148.78 890.24 151.37Q888.94 153.96 888.94 157.42L888.94 187.50M956.13 188.57Q948.12 188.57 942.36 185.28Q936.60 181.98 933.50 175.88Q930.40 169.78 930.40 161.43L930.40 161.38Q930.40 153.03 933.50 146.90Q936.60 140.77 942.24 137.43Q947.88 134.08 955.54 134.08Q963.21 134.08 968.80 137.33Q974.39 140.58 977.44 146.48Q980.49 152.39 980.49 160.30L980.49 164.70L937.38 164.70L937.38 155.71L973.76 155.71L966.97 164.11L966.97 158.64Q966.97 154.05 965.55 150.95Q964.14 147.85 961.62 146.29Q959.11 144.73 955.79 144.73Q952.47 144.73 949.90 146.34Q947.34 147.95 945.90 151.05Q944.46 154.15 944.46 158.64L944.46 164.16Q944.46 168.51 945.90 171.58Q947.34 174.66 950.03 176.29Q952.71 177.93 956.42 177.93Q959.35 177.93 961.50 177Q963.65 176.07 965.02 174.66Q966.38 173.24 966.87 171.78L966.97 171.48L980.05 171.48L979.91 172.02Q979.32 174.90 977.61 177.83Q975.90 180.76 973 183.20Q970.09 185.64 965.92 187.11Q961.74 188.57 956.13 188.57M995.24 188.33Q991.92 188.33 989.63 186.04Q987.33 183.74 987.33 180.42Q987.33 177.10 989.63 174.80Q991.92 172.51 995.24 172.51Q998.56 172.51 1000.86 174.80Q1003.15 177.10 1003.15 180.42Q1003.15 183.74 1000.86 186.04Q998.56 188.33 995.24 188.33M1026.44 187.50L1012.18 187.50L1012.18 135.16L1026.44 135.16L1026.44 187.50M1019.31 128.42Q1016.09 128.42 1013.89 126.22Q1011.70 124.02 1011.70 121Q1011.70 117.92 1013.89 115.75Q1016.09 113.57 1019.31 113.57Q1022.54 113.57 1024.73 115.75Q1026.93 117.92 1026.93 121Q1026.93 124.02 1024.73 126.22Q1022.54 128.42 1019.31 128.42M1059.99 188.57Q1052.03 188.57 1046.22 185.30Q1040.41 182.03 1037.23 175.93Q1034.06 169.82 1034.06 161.33L1034.06 161.23Q1034.06 152.78 1037.28 146.70Q1040.50 140.63 1046.31 137.35Q1052.13 134.08 1059.94 134.08Q1067.80 134.08 1073.63 137.33Q1079.47 140.58 1082.69 146.66Q1085.91 152.73 1085.91 161.23L1085.91 161.33Q1085.91 169.87 1082.72 175.98Q1079.52 182.08 1073.71 185.33Q1067.90 188.57 1059.99 188.57M1060.04 177.39Q1063.50 177.39 1066.07 175.51Q1068.63 173.63 1070.02 170.04Q1071.41 166.46 1071.41 161.33L1071.41 161.23Q1071.41 156.15 1070 152.59Q1068.58 149.02 1065.99 147.14Q1063.40 145.26 1059.94 145.26Q1056.52 145.26 1053.96 147.14Q1051.39 149.02 1049.98 152.59Q1048.56 156.15 1048.56 161.23L1048.56 161.33Q1048.56 166.46 1049.95 170.04Q1051.34 173.63 1053.93 175.51Q1056.52 177.39 1060.04 177.39M1106.28 117.04L1118.92 117.04L1101.29 204.59L1088.60 204.59L1106.28 117.04M1145.04 188.57Q1137.82 188.57 1132.74 186.47Q1127.66 184.38 1124.81 180.64Q1121.95 176.90 1121.36 171.97L1121.31 171.53L1135.23 171.53L1135.33 171.97Q1136.01 175.05 1138.40 176.76Q1140.80 178.47 1145.04 178.47Q1147.78 178.47 1149.68 177.81Q1151.59 177.15 1152.64 175.93Q1153.69 174.71 1153.69 173L1153.69 172.95Q1153.69 170.85 1152.17 169.58Q1150.66 168.31 1146.80 167.43L1137.92 165.58Q1132.84 164.50 1129.44 162.48Q1126.05 160.45 1124.34 157.45Q1122.63 154.44 1122.63 150.54L1122.63 150.49Q1122.63 145.46 1125.32 141.80Q1128 138.13 1132.96 136.11Q1137.92 134.08 1144.56 134.08Q1151.49 134.08 1156.35 136.30Q1161.21 138.53 1163.82 142.29Q1166.43 146.04 1166.58 150.63L1166.58 151.12L1153.44 151.12L1153.39 150.73Q1153.05 147.90 1150.78 146.02Q1148.51 144.14 1144.56 144.14Q1142.12 144.14 1140.31 144.82Q1138.50 145.51 1137.53 146.75Q1136.55 148 1136.55 149.71L1136.55 149.76Q1136.55 151.07 1137.21 152.12Q1137.87 153.17 1139.43 153.96Q1140.99 154.74 1143.63 155.32L1152.52 157.23Q1157.98 158.35 1161.38 160.25Q1164.77 162.16 1166.36 164.92Q1167.95 167.68 1167.95 171.53L1167.95 171.58Q1167.95 176.71 1165.02 180.52Q1162.09 184.33 1156.93 186.45Q1151.78 188.57 1145.04 188.57M1193.29 163.62L1188.75 187.50L1177.86 187.50L1191.38 117.04L1202.22 117.04L1197.97 139.26L1197.39 139.26L1192.70 163.62L1193.29 163.62M1226 117.04L1212.53 187.50L1201.59 187.50L1206.13 163.57L1206.71 163.57L1211.40 139.21L1210.82 139.21L1215.11 117.04L1226 117.04M1229.66 159.23L1227.66 169.82L1170.34 169.82L1172.34 159.23L1189.09 159.23L1189.09 159.81L1213.65 159.81L1213.65 159.23L1229.66 159.23M1234.21 133.89L1232.20 144.38L1215.50 144.38L1215.50 143.80L1191.04 143.80L1190.99 144.38L1174.83 144.38L1176.88 133.89"/>
	<path class="ue-key" d="M1266.97 187.50L1240.06 187.50L1240.06 117.04L1266.97 117.04Q1277.56 117.04 1285.06 121.09Q1292.55 125.15 1296.56 132.93Q1300.56 140.72 1300.56 151.90L1300.56 152Q1300.56 163.18 1296.58 171.14Q1292.60 179.10 1285.08 183.30Q1277.56 187.50 1266.97 187.50M1254.81 129.20L1254.81 175.29L1265.21 175.29Q1271.80 175.29 1276.34 172.66Q1280.88 170.02 1283.20 164.84Q1285.52 159.67 1285.52 152.05L1285.52 151.95Q1285.52 144.58 1283.16 139.50Q1280.79 134.42 1276.25 131.81Q1271.71 129.20 1265.21 129.20L1254.81 129.20M1304.62 204.74Q1303.64 204.74 1302.49 204.69Q1301.34 204.64 1300.71 204.59L1300.71 193.85Q1301.10 193.90 1301.56 193.92Q1302.03 193.95 1302.52 193.95Q1306.08 193.95 1307.59 192.65Q1309.11 191.36 1309.11 188.18L1309.11 135.16L1323.37 135.16L1323.37 188.57Q1323.37 196.53 1318.60 200.63Q1313.84 204.74 1304.62 204.74M1316.24 128.42Q1313.01 128.42 1310.82 126.22Q1308.62 124.02 1308.62 121Q1308.62 117.92 1310.82 115.75Q1313.01 113.57 1316.24 113.57Q1319.46 113.57 1321.66 115.75Q1323.85 117.92 1323.85 121Q1323.85 124.02 1321.66 126.22Q1319.46 128.42 1316.24 128.42M1358.08 187.50L1343.09 187.50L1329.18 135.16L1343.53 135.16L1351.44 173.97L1351.73 173.97L1361.01 135.16L1374.68 135.16L1384.01 173.97L1384.30 173.97L1392.26 135.16L1406.32 135.16L1392.46 187.50L1377.27 187.50L1367.80 150.49L1367.51 150.49L1358.08 187.50M1431.37 187.50L1415.89 187.50L1446.22 129.05L1446.22 128.76L1410.38 128.76L1410.38 117.04L1460.77 117.04L1460.77 128.91L1431.37 187.50M1498.90 148.88L1484.50 166.65L1484.50 149.27L1485.43 149.27L1511.26 117.04L1527.66 117.04L1501.78 148.88L1498.90 148.88M1485.08 187.50L1470.34 187.50L1470.34 117.04L1485.08 117.04L1485.08 187.50M1529.47 187.50L1511.84 187.50L1489.23 154.10L1499.88 144.43L1529.47 187.50M1548.71 204.59L1534.45 204.59L1534.45 135.16L1548.71 135.16L1548.71 144.29L1549.05 144.29Q1550.46 141.11 1552.78 138.82Q1555.10 136.52 1558.20 135.30Q1561.30 134.08 1565.02 134.08Q1571.66 134.08 1576.44 137.33Q1581.23 140.58 1583.81 146.68Q1586.40 152.78 1586.40 161.28L1586.40 161.33Q1586.40 169.82 1583.84 175.93Q1581.28 182.03 1576.54 185.30Q1571.80 188.57 1565.21 188.57Q1561.50 188.57 1558.33 187.35Q1555.15 186.13 1552.81 183.91Q1550.46 181.69 1549 178.56L1548.71 178.56L1548.71 204.59M1560.33 176.76Q1563.89 176.76 1566.48 174.88Q1569.07 173 1570.48 169.53Q1571.90 166.06 1571.90 161.33L1571.90 161.28Q1571.90 156.49 1570.48 153.03Q1569.07 149.56 1566.46 147.73Q1563.84 145.90 1560.33 145.90Q1556.86 145.90 1554.22 147.78Q1551.59 149.66 1550.12 153.10Q1548.66 156.54 1548.66 161.33L1548.66 161.38Q1548.66 166.06 1550.15 169.53Q1551.64 173 1554.25 174.88Q1556.86 176.76 1560.33 176.76M1645.34 187.50L1594.12 187.50L1594.12 177.39L1619.02 154.10Q1623.61 149.85 1625.95 147.02Q1628.30 144.19 1629.15 141.94Q1630.01 139.70 1630.01 137.26L1630.01 137.16Q1630.01 134.28 1628.64 132.06Q1627.27 129.83 1624.85 128.56Q1622.44 127.29 1619.31 127.29Q1615.70 127.29 1612.96 128.74Q1610.23 130.18 1608.67 132.69Q1607.11 135.21 1607.01 138.38L1606.96 138.82L1593.29 138.82L1593.29 138.43Q1593.29 131.79 1596.66 126.68Q1600.03 121.58 1605.91 118.70Q1611.79 115.82 1619.21 115.82Q1626.69 115.82 1632.35 118.43Q1638.01 121.04 1641.19 125.68Q1644.36 130.32 1644.36 136.33L1644.36 136.43Q1644.36 140.67 1642.82 144.31Q1641.29 147.95 1637.77 152.03Q1634.25 156.10 1628.15 161.72L1607.74 180.32L1613.40 170.41L1613.40 180.32L1607.79 175.78L1645.34 175.78L1645.34 187.50M1700.86 187.50L1655.30 187.50L1655.30 117.04L1670.04 117.04L1670.04 175.34L1700.86 175.34L1700.86 187.50M1722.63 187.50L1708.38 187.50L1708.38 135.16L1722.63 135.16L1722.63 143.95L1722.93 143.95Q1724.54 139.45 1728.42 136.77Q1732.30 134.08 1737.57 134.08Q1741.24 134.08 1744.17 135.35Q1747.10 136.62 1749.12 139.01Q1751.15 141.41 1751.98 144.87L1752.27 144.87Q1753.44 141.55 1755.81 139.14Q1758.18 136.72 1761.43 135.40Q1764.67 134.08 1768.53 134.08Q1773.66 134.08 1777.52 136.28Q1781.37 138.48 1783.52 142.43Q1785.67 146.39 1785.67 151.71L1785.67 187.50L1771.41 187.50L1771.41 155.27Q1771.41 152.25 1770.41 150.15Q1769.41 148.05 1767.53 146.97Q1765.65 145.90 1762.87 145.90Q1760.18 145.90 1758.16 147.12Q1756.13 148.34 1755.01 150.54Q1753.88 152.73 1753.88 155.66L1753.88 187.50L1740.16 187.50L1740.16 154.83Q1740.16 152 1739.14 150Q1738.11 148 1736.23 146.95Q1734.35 145.90 1731.71 145.90Q1729.03 145.90 1726.98 147.17Q1724.93 148.44 1723.78 150.68Q1722.63 152.93 1722.63 155.91L1722.63 187.50M1827.71 188.72Q1817.26 188.72 1809.62 184.28Q1801.98 179.83 1797.85 171.66Q1793.73 163.48 1793.73 152.29L1793.73 152.20Q1793.73 140.97 1797.88 132.81Q1802.03 124.66 1809.67 120.24Q1817.31 115.82 1827.71 115.82Q1838.16 115.82 1845.78 120.26Q1853.39 124.71 1857.54 132.84Q1861.70 140.97 1861.70 152.20L1861.70 152.29Q1861.70 163.48 1857.54 171.66Q1853.39 179.83 1845.80 184.28Q1838.21 188.72 1827.71 188.72M1827.71 176.22Q1833.57 176.22 1837.79 173.27Q1842.02 170.31 1844.31 164.94Q1846.61 159.57 1846.61 152.29L1846.61 152.20Q1846.61 144.82 1844.29 139.48Q1841.97 134.13 1837.72 131.23Q1833.47 128.32 1827.71 128.32Q1821.95 128.32 1817.70 131.20Q1813.45 134.08 1811.11 139.43Q1808.77 144.78 1808.77 152.20L1808.77 152.29Q1808.77 159.62 1811.08 164.99Q1813.40 170.36 1817.65 173.29Q1821.90 176.22 1827.71 176.22M1859.30 194.09L1845.29 194.09L1823.51 163.33L1837.53 163.33L1859.30 194.09M1917.90 187.50L1903.88 187.50L1903.88 174.56L1868.82 174.56L1868.82 162.26Q1871.66 157.76 1874.49 153.22Q1877.32 148.68 1880.15 144.17Q1882.98 139.65 1885.79 135.13Q1888.60 130.62 1891.43 126.07Q1894.26 121.53 1897.10 117.04L1917.90 117.04L1917.90 162.79L1927.17 162.79L1927.17 174.56L1917.90 174.56L1917.90 187.50M1881.67 162.79L1881.67 163.18L1904.18 163.18L1904.18 127.69L1903.83 127.69Q1901.59 131.20 1899.39 134.72Q1897.19 138.23 1894.97 141.72Q1892.75 145.21 1890.53 148.75Q1888.31 152.29 1886.08 155.79Q1883.86 159.28 1881.67 162.79M1964.58 187.50L1948.51 187.50L1930.40 135.16L1945.63 135.16L1956.57 174.90L1956.86 174.90L1967.65 135.16L1982.54 135.16L1964.58 187.50M2020.34 187.50L2005.59 187.50L2005.59 129.20L1985.23 129.20L1985.23 117.04L2040.75 117.04L2040.75 129.20L2020.34 129.20L2020.34 187.50M2061.94 187.50L2047.68 187.50L2047.68 135.16L2061.94 135.16L2061.94 143.75L2062.23 143.75Q2064.28 139.26 2068.29 136.67Q2072.29 134.08 2078.20 134.08Q2086.84 134.08 2091.55 139.28Q2096.27 144.48 2096.27 153.71L2096.27 187.50L2082.01 187.50L2082.01 156.64Q2082.01 151.51 2079.59 148.71Q2077.17 145.90 2072.39 145.90Q2069.21 145.90 2066.87 147.34Q2064.53 148.78 2063.23 151.37Q2061.94 153.96 2061.94 157.42L2061.94 187.50M2137.72 187.50L2113.89 187.50L2113.89 176.51L2133.96 176.51Q2140.31 176.51 2143.68 173.95Q2147.05 171.39 2147.05 166.50L2147.05 166.41Q2147.05 163.18 2145.48 160.96Q2143.92 158.74 2140.87 157.62Q2137.82 156.49 2133.33 156.49L2113.89 156.49L2113.89 146.48L2131.57 146.48Q2137.82 146.48 2141.07 143.97Q2144.31 141.46 2144.31 136.91L2144.31 136.82Q2144.31 132.62 2141.43 130.30Q2138.55 127.98 2133.38 127.98L2113.89 127.98L2113.89 117.04L2137.18 117.04Q2143.87 117.04 2148.71 119.19Q2153.54 121.34 2156.18 125.32Q2158.81 129.30 2158.81 134.72L2158.81 134.81Q2158.81 138.67 2157.03 141.97Q2155.25 145.26 2152.17 147.44Q2149.10 149.61 2145.19 150.15L2145.19 150.44Q2150.12 150.78 2153.93 153.05Q2157.74 155.32 2159.91 159.01Q2162.09 162.70 2162.09 167.33L2162.09 167.43Q2162.09 173.58 2159.13 178.08Q2156.18 182.57 2150.73 185.03Q2145.29 187.50 2137.72 187.50M2121.27 187.50L2106.52 187.50L2106.52 117.04L2121.27 117.04L2121.27 187.50M2197.10 188.72Q2188.70 188.72 2182.30 186.13Q2175.90 183.54 2172.29 178.93Q2168.68 174.32 2168.68 168.26L2168.68 168.16Q2168.68 163.57 2170.78 159.91Q2172.88 156.25 2176.54 153.81Q2180.20 151.37 2184.94 150.44L2184.94 150.15Q2178.83 148.63 2175.05 144.51Q2171.27 140.38 2171.27 134.72L2171.27 134.62Q2171.27 129.15 2174.54 124.93Q2177.81 120.70 2183.64 118.26Q2189.48 115.82 2197.10 115.82Q2204.71 115.82 2210.52 118.26Q2216.33 120.70 2219.63 124.93Q2222.93 129.15 2222.93 134.62L2222.93 134.72Q2222.93 140.38 2219.14 144.51Q2215.36 148.63 2209.25 150.15L2209.25 150.44Q2213.99 151.37 2217.65 153.81Q2221.31 156.25 2223.39 159.91Q2225.46 163.57 2225.46 168.16L2225.46 168.26Q2225.46 174.32 2221.88 178.93Q2218.29 183.54 2211.89 186.13Q2205.49 188.72 2197.10 188.72M2197.10 177.98Q2200.95 177.98 2203.88 176.61Q2206.81 175.24 2208.50 172.80Q2210.18 170.36 2210.18 167.29L2210.18 167.19Q2210.18 164.06 2208.52 161.62Q2206.86 159.18 2203.91 157.79Q2200.95 156.40 2197.10 156.40Q2193.19 156.40 2190.24 157.79Q2187.28 159.18 2185.62 161.62Q2183.96 164.06 2183.96 167.19L2183.96 167.29Q2183.96 170.36 2185.65 172.80Q2187.33 175.24 2190.28 176.61Q2193.24 177.98 2197.10 177.98M2197.10 145.70Q2200.42 145.70 2202.96 144.48Q2205.49 143.26 2206.91 141.09Q2208.33 138.92 2208.33 136.08L2208.33 135.99Q2208.33 133.15 2206.89 131.01Q2205.45 128.86 2202.91 127.66Q2200.37 126.46 2197.10 126.46Q2193.78 126.46 2191.24 127.66Q2188.70 128.86 2187.26 131.01Q2185.82 133.15 2185.82 135.99L2185.82 136.08Q2185.82 138.92 2187.26 141.09Q2188.70 143.26 2191.24 144.48Q2193.78 145.70 2197.10 145.70M2255.69 188.57Q2248.46 188.57 2243.38 186.47Q2238.31 184.38 2235.45 180.64Q2232.59 176.90 2232.01 171.97L2231.96 171.53L2245.88 171.53L2245.97 171.97Q2246.66 175.05 2249.05 176.76Q2251.44 178.47 2255.69 178.47Q2258.42 178.47 2260.33 177.81Q2262.23 177.15 2263.28 175.93Q2264.33 174.71 2264.33 173L2264.33 172.95Q2264.33 170.85 2262.82 169.58Q2261.30 168.31 2257.45 167.43L2248.56 165.58Q2243.48 164.50 2240.09 162.48Q2236.70 160.45 2234.99 157.45Q2233.28 154.44 2233.28 150.54L2233.28 150.49Q2233.28 145.46 2235.96 141.80Q2238.65 138.13 2243.60 136.11Q2248.56 134.08 2255.20 134.08Q2262.13 134.08 2266.99 136.30Q2271.85 138.53 2274.46 142.29Q2277.08 146.04 2277.22 150.63L2277.22 151.12L2264.09 151.12L2264.04 150.73Q2263.70 147.90 2261.43 146.02Q2259.16 144.14 2255.20 144.14Q2252.76 144.14 2250.95 144.82Q2249.15 145.51 2248.17 146.75Q2247.19 148 2247.19 149.71L2247.19 149.76Q2247.19 151.07 2247.85 152.12Q2248.51 153.17 2250.07 153.96Q2251.64 154.74 2254.27 155.32L2263.16 157.23Q2268.63 158.35 2272.02 160.25Q2275.42 162.16 2277 164.92Q2278.59 167.68 2278.59 171.53L2278.59 171.58Q2278.59 176.71 2275.66 180.52Q2272.73 184.33 2267.58 186.45Q2262.43 188.57 2255.69 188.57M2301.59 187.50L2286.84 187.50L2286.84 117.04L2315.94 117.04Q2323.85 117.04 2329.49 119.73Q2335.13 122.41 2338.14 127.47Q2341.14 132.52 2341.14 139.60L2341.14 139.70Q2341.14 146.63 2337.70 152.05Q2334.25 157.47 2328.39 159.77L2343.24 187.50L2326.54 187.50L2313.40 161.96Q2313.26 161.96 2313.06 161.96Q2312.87 161.96 2312.67 161.96L2301.59 161.96L2301.59 187.50M2301.59 128.56L2301.59 150.78L2314.33 150.78Q2319.85 150.78 2322.95 147.83Q2326.05 144.87 2326.05 139.70L2326.05 139.60Q2326.05 134.52 2322.83 131.54Q2319.61 128.56 2314.14 128.56L2301.59 128.56M2376.20 188.72Q2368.19 188.72 2362.23 186.11Q2356.28 183.50 2352.78 178.86Q2349.29 174.22 2348.80 168.16L2348.76 167.53L2362.82 167.53L2362.92 168.07Q2363.26 170.61 2364.94 172.58Q2366.63 174.56 2369.48 175.71Q2372.34 176.86 2376.15 176.86Q2379.96 176.86 2382.74 175.61Q2385.52 174.37 2387.06 172.14Q2388.60 169.92 2388.60 167.04L2388.60 166.94Q2388.60 161.87 2385.04 159.18Q2381.47 156.49 2375.07 156.49L2367.02 156.49L2367.02 146L2374.88 146Q2378.59 146 2381.32 144.78Q2384.06 143.55 2385.55 141.38Q2387.04 139.21 2387.04 136.38L2387.04 136.28Q2387.04 133.40 2385.74 131.37Q2384.45 129.35 2381.98 128.25Q2379.52 127.15 2376.05 127.15Q2372.63 127.15 2370 128.27Q2367.36 129.39 2365.80 131.42Q2364.23 133.45 2363.89 136.18L2363.84 136.62L2350.32 136.62L2350.37 136.04Q2350.86 129.88 2354.15 125.37Q2357.45 120.85 2363.06 118.33Q2368.68 115.82 2376.05 115.82Q2383.67 115.82 2389.26 118.14Q2394.85 120.46 2397.93 124.61Q2401 128.76 2401 134.33L2401 134.42Q2401 138.82 2399.05 142.14Q2397.10 145.46 2393.75 147.61Q2390.41 149.76 2386.30 150.63L2386.30 150.93Q2394.17 151.66 2398.88 156.01Q2403.59 160.35 2403.59 167.53L2403.59 167.63Q2403.59 173.93 2400.17 178.66Q2396.75 183.40 2390.60 186.06Q2384.45 188.72 2376.20 188.72M2424.05 187.50L2409.06 187.50L2425.46 161.43L2409.16 135.16L2425.22 135.16L2434.64 152.83L2434.94 152.83L2444.21 135.16L2459.74 135.16L2443.38 161.04L2459.60 187.50L2444.12 187.50L2434.16 169.34L2433.86 169.34L2424.05 187.50M2519.51 187.50L2465.11 187.50L2465.11 177.88L2500.95 129.49L2500.95 129.20L2465.94 129.20L2465.94 117.04L2518.53 117.04L2518.53 126.61L2482.84 175.05L2482.84 175.34L2519.51 175.34L2519.51 187.50M2557.25 188.72Q2550.86 188.72 2545.51 186.47Q2540.16 184.23 2536.18 179.76Q2532.20 175.29 2530.03 168.58Q2527.86 161.87 2527.86 152.88L2527.86 152.78Q2527.86 141.26 2531.42 132.96Q2534.99 124.66 2541.60 120.24Q2548.22 115.82 2557.40 115.82Q2564.23 115.82 2569.70 118.24Q2575.17 120.65 2578.76 124.90Q2582.35 129.15 2583.38 134.57L2583.47 135.06L2568.92 135.06L2568.78 134.62Q2567.90 132.47 2566.31 130.88Q2564.72 129.30 2562.48 128.39Q2560.23 127.49 2557.35 127.49Q2552.22 127.49 2548.93 130.47Q2545.63 133.45 2543.97 138.48Q2542.31 143.51 2542.02 149.76Q2541.97 150.49 2541.94 151.22Q2541.92 151.95 2541.92 152.69L2544.17 164.40Q2544.17 167.92 2545.88 170.78Q2547.58 173.63 2550.51 175.32Q2553.44 177 2557.06 177Q2560.67 177 2563.60 175.34Q2566.53 173.68 2568.29 170.87Q2570.04 168.07 2570.04 164.60L2570.04 164.50Q2570.04 160.84 2568.36 158.01Q2566.68 155.18 2563.77 153.59Q2560.87 152 2557.20 152Q2553.54 152 2550.56 153.59Q2547.58 155.18 2545.88 157.96Q2544.17 160.74 2544.17 164.31L2544.17 164.40L2541.19 164.40L2541.19 152.44L2542.21 152.44Q2543.63 149.17 2546.34 146.63Q2549.05 144.09 2552.88 142.60Q2556.71 141.11 2561.45 141.11Q2568.29 141.11 2573.44 144.07Q2578.59 147.02 2581.50 152.20Q2584.40 157.37 2584.40 163.96L2584.40 164.06Q2584.40 171.29 2580.88 176.83Q2577.37 182.37 2571.24 185.55Q2565.11 188.72 2557.25 188.72M2601.93 204.74Q2599.83 204.74 2597.88 204.54Q2595.92 204.35 2594.65 204.10L2594.65 193.51Q2595.44 193.65 2596.66 193.82Q2597.88 193.99 2599.44 193.99Q2602.66 193.99 2604.52 192.92Q2606.37 191.85 2607.30 189.21L2607.94 187.50L2589.43 135.16L2605.10 135.16L2616.92 178.91L2615.02 176.07L2617.70 176.07L2615.80 178.91L2627.61 135.16L2642.65 135.16L2624.68 188.43Q2622.63 194.58 2619.53 198.14Q2616.43 201.71 2612.09 203.22Q2607.74 204.74 2601.93 204.74M2663.60 187.50L2648.85 187.50L2648.85 117.04L2663.60 117.04L2663.60 145.65L2695.34 145.65L2695.34 117.04L2710.08 117.04L2710.08 187.50L2695.34 187.50L2695.34 157.81L2663.60 157.81"/>
	<path class="ue-brace" d="M1088.6,244c0,49 -95.63,88.9 -213.45,88.9h-228.85l-90,56.9l-90,-56.9h-228.85c-117.61,0 -213.45,-39.9 -213.45,-88.9"/>
	<path class="ue-brace-key" d="M2715.94,244c0,49 -133.1,88.9 -297.09,88.9h-353.78l-90,56.9l-90,-56.9h-353.78c-163.7,0 -297.09,-39.9 -297.09,-88.9"/>
	<path class="ue-base" d="M439.54 493.69L418.78 493.69L418.78 438.03L439.54 438.03Q447.83 438.03 453.69 441.27Q459.56 444.51 462.66 450.68Q465.77 456.86 465.77 465.61L465.77 465.69Q465.77 474.56 462.66 480.83Q459.56 487.10 453.71 490.40Q447.87 493.69 439.54 493.69M428.73 446.40L428.73 485.32L438.26 485.32Q443.82 485.32 447.69 483.05Q451.57 480.77 453.60 476.41Q455.62 472.05 455.62 465.81L455.62 465.73Q455.62 459.60 453.58 455.28Q451.53 450.95 447.64 448.68Q443.74 446.40 438.26 446.40L428.73 446.40M493.50 494.54Q487.29 494.54 482.76 491.92Q478.23 489.30 475.78 484.42Q473.33 479.54 473.33 472.79L473.33 472.71Q473.33 466 475.80 461.12Q478.26 456.24 482.80 453.62Q487.33 450.99 493.50 450.99Q499.71 450.99 504.22 453.62Q508.74 456.24 511.21 461.10Q513.68 465.96 513.68 472.71L513.68 472.79Q513.68 479.54 511.23 484.42Q508.78 489.30 504.26 491.92Q499.75 494.54 493.50 494.54M493.50 486.75Q496.78 486.75 499.09 485.09Q501.41 483.43 502.64 480.31Q503.88 477.19 503.88 472.79L503.88 472.71Q503.88 468.31 502.64 465.21Q501.41 462.10 499.09 460.44Q496.78 458.79 493.50 458.79Q490.26 458.79 487.95 460.44Q485.63 462.10 484.40 465.21Q483.16 468.31 483.16 472.71L483.16 472.79Q483.16 477.22 484.40 480.35Q485.63 483.47 487.95 485.11Q490.26 486.75 493.50 486.75M532.08 493.69L522.47 493.69L522.47 451.84L532.08 451.84L532.08 458.40L532.62 458.40Q533.97 454.93 536.99 452.96Q540.02 450.99 544.15 450.99Q547 450.99 549.30 451.94Q551.59 452.88 553.23 454.62Q554.87 456.36 555.72 458.79L556.30 458.79Q557.30 456.43 559.19 454.68Q561.08 452.92 563.61 451.96Q566.14 450.99 569.07 450.99Q573.27 450.99 576.28 452.69Q579.29 454.39 580.93 457.49Q582.57 460.60 582.57 464.92L582.57 493.69L572.96 493.69L572.96 467.27Q572.96 464.57 572.13 462.76Q571.31 460.95 569.63 460.02Q567.95 459.09 565.40 459.09Q562.97 459.09 561.14 460.21Q559.31 461.33 558.29 463.24Q557.26 465.15 557.26 467.62L557.26 493.69L547.74 493.69L547.74 466.62Q547.74 464.26 546.83 462.58Q545.92 460.91 544.25 460Q542.57 459.09 540.21 459.09Q537.86 459.09 536.01 460.29Q534.16 461.49 533.12 463.53Q532.08 465.57 532.08 468.16L532.08 493.69M604.67 494.39Q600.66 494.39 597.54 492.85Q594.41 491.30 592.64 488.47Q590.86 485.63 590.86 481.85L590.86 481.78Q590.86 478.03 592.71 475.35Q594.57 472.67 598.11 471.13Q601.66 469.59 606.72 469.28L622.34 468.35L622.34 474.68L608.10 475.60Q604.17 475.80 602.26 477.28Q600.35 478.77 600.35 481.31L600.35 481.39Q600.35 484.05 602.38 485.56Q604.40 487.06 607.56 487.06Q610.46 487.06 612.70 485.90Q614.93 484.75 616.24 482.76Q617.56 480.77 617.56 478.30L617.56 465.23Q617.56 462.06 615.55 460.35Q613.54 458.63 609.73 458.63Q606.37 458.63 604.31 459.85Q602.24 461.06 601.55 463.18L601.51 463.38L592.48 463.38L592.52 463.03Q592.98 459.44 595.24 456.74Q597.50 454.04 601.30 452.52Q605.10 450.99 610.15 450.99Q615.51 450.99 619.29 452.69Q623.07 454.39 625.08 457.53Q627.08 460.68 627.08 465.07L627.08 493.69L617.56 493.69L617.56 487.79L616.98 487.79Q615.82 489.84 613.99 491.32Q612.16 492.81 609.80 493.60Q607.45 494.39 604.67 494.39M647.41 493.69L637.81 493.69L637.81 451.84L647.41 451.84L647.41 493.69M642.63 445.05Q640.31 445.05 638.66 443.41Q637 441.77 637 439.50Q637 437.18 638.66 435.56Q640.31 433.94 642.63 433.94Q644.94 433.94 646.60 435.56Q648.26 437.18 648.26 439.50Q648.26 441.77 646.60 443.41Q644.94 445.05 642.63 445.05M667.93 493.69L658.33 493.69L658.33 451.84L667.93 451.84L667.93 458.28L668.47 458.28Q670.02 454.89 673.08 452.94Q676.15 450.99 680.74 450.99Q687.72 450.99 691.44 455.08Q695.17 459.17 695.17 466.62L695.17 493.69L685.56 493.69L685.56 468.78Q685.56 463.99 683.50 461.54Q681.43 459.09 677.15 459.09Q674.30 459.09 672.23 460.37Q670.17 461.64 669.05 463.92Q667.93 466.19 667.93 469.32"/>
	<path class="ue-key" d="M1507.38 494.97Q1500.94 494.97 1496.18 493Q1491.41 491.03 1488.65 487.45Q1485.90 483.86 1485.55 479L1485.51 478.46L1495.15 478.46L1495.19 478.88Q1495.46 481.24 1497.10 482.97Q1498.74 484.71 1501.46 485.67Q1504.18 486.64 1507.69 486.64Q1511.12 486.64 1513.69 485.61Q1516.25 484.59 1517.70 482.76Q1519.15 480.93 1519.15 478.57L1519.15 478.54Q1519.15 475.49 1516.81 473.60Q1514.48 471.71 1509.08 470.55L1503.10 469.32Q1497.47 468.12 1493.84 465.96Q1490.22 463.80 1488.48 460.66Q1486.74 457.51 1486.74 453.38L1486.74 453.35Q1486.78 448.37 1489.42 444.65Q1492.07 440.93 1496.72 438.84Q1501.36 436.76 1507.38 436.76Q1513.51 436.76 1518.03 438.80Q1522.54 440.85 1525.13 444.40Q1527.71 447.95 1528.06 452.50L1528.10 453.04L1518.57 453.04L1518.49 452.57Q1518.14 450.34 1516.70 448.66Q1515.25 446.98 1512.86 446.04Q1510.47 445.09 1507.30 445.09Q1504.18 445.09 1501.81 446.04Q1499.43 446.98 1498.08 448.68Q1496.73 450.38 1496.73 452.73L1496.73 452.77Q1496.73 454.74 1497.74 456.22Q1498.74 457.71 1500.90 458.77Q1503.06 459.83 1506.49 460.56L1512.47 461.83Q1518.34 463.07 1522 465.11Q1525.67 467.16 1527.40 470.20Q1529.14 473.25 1529.14 477.49L1529.14 477.53Q1529.14 482.89 1526.49 486.81Q1523.85 490.72 1518.97 492.85Q1514.09 494.97 1507.38 494.97M1556.45 494.54Q1550.24 494.54 1545.74 491.90Q1541.25 489.26 1538.84 484.40Q1536.43 479.54 1536.43 472.86L1536.43 472.83Q1536.43 466.23 1538.84 461.33Q1541.25 456.43 1545.65 453.71Q1550.04 450.99 1556.02 450.99Q1561.96 450.99 1566.30 453.62Q1570.64 456.24 1572.98 460.96Q1575.31 465.69 1575.31 472.02L1575.31 475.18L1541.25 475.18L1541.25 468.74L1570.64 468.74L1566.05 474.76L1566.05 470.94Q1566.05 466.77 1564.78 464.03Q1563.51 461.29 1561.29 459.90Q1559.07 458.52 1556.14 458.52Q1553.21 458.52 1550.93 459.94Q1548.66 461.37 1547.32 464.15Q1545.99 466.92 1545.99 470.94L1545.99 474.76Q1545.99 478.61 1547.29 481.35Q1548.58 484.09 1550.99 485.56Q1553.40 487.02 1556.68 487.02Q1559.22 487.02 1561.08 486.27Q1562.93 485.52 1564.09 484.42Q1565.24 483.32 1565.71 482.28L1565.82 482.01L1574.89 482.01L1574.81 482.35Q1574.31 484.48 1572.96 486.62Q1571.61 488.76 1569.37 490.55Q1567.13 492.34 1563.91 493.44Q1560.69 494.54 1556.45 494.54M1602.20 494.54Q1595.91 494.54 1591.42 491.92Q1586.92 489.30 1584.51 484.40Q1582.10 479.50 1582.10 472.71L1582.10 472.63Q1582.10 465.88 1584.51 461.04Q1586.92 456.20 1591.42 453.60Q1595.91 450.99 1602.16 450.99Q1607.56 450.99 1611.47 452.92Q1615.39 454.85 1617.66 458.17Q1619.94 461.49 1620.44 465.81L1620.44 466L1611.38 466L1611.34 465.84Q1610.72 462.80 1608.41 460.79Q1606.09 458.79 1602.20 458.79Q1598.96 458.79 1596.66 460.44Q1594.37 462.10 1593.13 465.19Q1591.90 468.27 1591.90 472.63L1591.90 472.71Q1591.90 477.15 1593.13 480.29Q1594.37 483.43 1596.68 485.09Q1598.99 486.75 1602.20 486.75Q1605.94 486.75 1608.21 485Q1610.49 483.24 1611.34 479.96L1611.42 479.73L1620.44 479.73L1620.40 480Q1619.79 484.28 1617.49 487.56Q1615.20 490.84 1611.34 492.69Q1607.48 494.54 1602.20 494.54M1638.42 493.69L1628.81 493.69L1628.81 451.84L1638.42 451.84L1638.42 458.44L1638.96 458.44Q1640 454.97 1642.74 453.04Q1645.48 451.11 1649.45 451.11Q1650.53 451.11 1651.51 451.24Q1652.50 451.38 1653.15 451.53L1653.15 460.17Q1652.11 459.90 1650.97 459.77Q1649.84 459.63 1648.60 459.63Q1645.52 459.63 1643.22 460.81Q1640.93 461.99 1639.67 464.17Q1638.42 466.35 1638.42 469.39L1638.42 493.69M1678.30 494.54Q1672.09 494.54 1667.60 491.90Q1663.11 489.26 1660.69 484.40Q1658.28 479.54 1658.28 472.86L1658.28 472.83Q1658.28 466.23 1660.69 461.33Q1663.11 456.43 1667.50 453.71Q1671.90 450.99 1677.88 450.99Q1683.82 450.99 1688.16 453.62Q1692.50 456.24 1694.83 460.96Q1697.17 465.69 1697.17 472.02L1697.17 475.18L1663.11 475.18L1663.11 468.74L1692.50 468.74L1687.91 474.76L1687.91 470.94Q1687.91 466.77 1686.64 464.03Q1685.36 461.29 1683.14 459.90Q1680.93 458.52 1677.99 458.52Q1675.06 458.52 1672.79 459.94Q1670.51 461.37 1669.18 464.15Q1667.85 466.92 1667.85 470.94L1667.85 474.76Q1667.85 478.61 1669.14 481.35Q1670.43 484.09 1672.85 485.56Q1675.26 487.02 1678.53 487.02Q1681.08 487.02 1682.93 486.27Q1684.78 485.52 1685.94 484.42Q1687.10 483.32 1687.56 482.28L1687.68 482.01L1696.74 482.01L1696.66 482.35Q1696.16 484.48 1694.81 486.62Q1693.46 488.76 1691.23 490.55Q1688.99 492.34 1685.77 493.44Q1682.55 494.54 1678.30 494.54M1722.20 494.04Q1715.18 494.04 1712 491.36Q1708.82 488.68 1708.82 482.51L1708.82 459.25L1702.45 459.25L1702.45 451.84L1708.82 451.84L1708.82 441.47L1718.57 441.47L1718.57 451.84L1727.14 451.84L1727.14 459.25L1718.57 459.25L1718.57 480.62Q1718.57 483.70 1719.91 485.07Q1721.24 486.44 1724.13 486.44Q1725.06 486.44 1725.73 486.39Q1726.41 486.33 1727.14 486.29L1727.14 493.62Q1726.17 493.77 1724.90 493.91Q1723.63 494.04 1722.20 494.04M1766.79 493.69L1756.84 493.69L1756.84 438.03L1766.79 438.03L1766.79 493.69M1800.35 493.69L1779.60 493.69L1779.60 438.03L1800.35 438.03Q1808.65 438.03 1814.51 441.27Q1820.37 444.51 1823.48 450.68Q1826.58 456.86 1826.58 465.61L1826.58 465.69Q1826.58 474.56 1823.48 480.83Q1820.37 487.10 1814.53 490.40Q1808.68 493.69 1800.35 493.69M1789.55 446.40L1789.55 485.32L1799.08 485.32Q1804.63 485.32 1808.51 483.05Q1812.39 480.77 1814.41 476.41Q1816.44 472.05 1816.44 465.81L1816.44 465.73Q1816.44 459.60 1814.39 455.28Q1812.35 450.95 1808.45 448.68Q1804.56 446.40 1799.08 446.40"/>
	<path class="ue-base" d="M1866.70 435.87L1875.57 435.87L1859.45 507.58L1850.58 507.58"/>
	<path class="ue-key" d="M1937.83 493.69L1901.80 493.69L1901.80 438.03L1937.83 438.03L1937.83 446.40L1911.75 446.40L1911.75 461.45L1936.40 461.45L1936.40 469.39L1911.75 469.39L1911.75 485.32L1937.83 485.32L1937.83 493.69M1957.89 493.69L1948.28 493.69L1948.28 451.84L1957.89 451.84L1957.89 458.28L1958.43 458.28Q1959.97 454.89 1963.04 452.94Q1966.11 450.99 1970.70 450.99Q1977.68 450.99 1981.40 455.08Q1985.12 459.17 1985.12 466.62L1985.12 493.69L1975.52 493.69L1975.52 468.78Q1975.52 463.99 1973.45 461.54Q1971.39 459.09 1967.11 459.09Q1964.25 459.09 1962.19 460.37Q1960.13 461.64 1959.01 463.92Q1957.89 466.19 1957.89 469.32L1957.89 493.69M2013.67 494.54Q2007.38 494.54 2002.89 491.92Q1998.39 489.30 1995.98 484.40Q1993.57 479.50 1993.57 472.71L1993.57 472.63Q1993.57 465.88 1995.98 461.04Q1998.39 456.20 2002.89 453.60Q2007.38 450.99 2013.63 450.99Q2019.03 450.99 2022.94 452.92Q2026.86 454.85 2029.14 458.17Q2031.41 461.49 2031.91 465.81L2031.91 466L2022.85 466L2022.81 465.84Q2022.19 462.80 2019.88 460.79Q2017.56 458.79 2013.67 458.79Q2010.43 458.79 2008.13 460.44Q2005.84 462.10 2004.60 465.19Q2003.37 468.27 2003.37 472.63L2003.37 472.71Q2003.37 477.15 2004.60 480.29Q2005.84 483.43 2008.15 485.09Q2010.47 486.75 2013.67 486.75Q2017.41 486.75 2019.69 485Q2021.96 483.24 2022.81 479.96L2022.89 479.73L2031.91 479.73L2031.87 480Q2031.26 484.28 2028.96 487.56Q2026.67 490.84 2022.81 492.69Q2018.95 494.54 2013.67 494.54M2049.89 493.69L2040.28 493.69L2040.28 451.84L2049.89 451.84L2049.89 458.44L2050.43 458.44Q2051.47 454.97 2054.21 453.04Q2056.95 451.11 2060.92 451.11Q2062 451.11 2062.98 451.24Q2063.97 451.38 2064.62 451.53L2064.62 460.17Q2063.58 459.90 2062.44 459.77Q2061.31 459.63 2060.07 459.63Q2056.99 459.63 2054.69 460.81Q2052.40 461.99 2051.14 464.17Q2049.89 466.35 2049.89 469.39L2049.89 493.69M2076.51 508.24Q2075.50 508.24 2074.46 508.16Q2073.42 508.08 2072.53 508.01L2072.53 500.64Q2073.11 500.72 2073.88 500.77Q2074.65 500.83 2075.46 500.83Q2078.40 500.83 2080.15 499.62Q2081.91 498.40 2082.72 495.59L2083.26 493.73L2068.25 451.84L2078.70 451.84L2089.62 488.53L2087.27 484.75L2090.28 484.75L2088 488.53L2098.88 451.84L2108.98 451.84L2093.98 494.74Q2092.20 499.79 2089.89 502.76Q2087.58 505.73 2084.34 506.98Q2081.10 508.24 2076.51 508.24M2125.88 507.58L2116.28 507.58L2116.28 451.84L2125.88 451.84L2125.88 458.55L2126.42 458.55Q2127.62 456.20 2129.47 454.56Q2131.32 452.92 2133.79 452.02Q2136.26 451.11 2139.19 451.11Q2144.47 451.11 2148.33 453.75Q2152.19 456.39 2154.31 461.23Q2156.43 466.08 2156.43 472.75L2156.43 472.79Q2156.43 479.50 2154.33 484.34Q2152.23 489.18 2148.37 491.80Q2144.51 494.43 2139.23 494.43Q2136.33 494.43 2133.85 493.50Q2131.36 492.58 2129.45 490.92Q2127.54 489.26 2126.42 486.94L2125.88 486.94L2125.88 507.58M2136.26 486.33Q2139.50 486.33 2141.81 484.69Q2144.13 483.05 2145.38 480.02Q2146.63 476.99 2146.63 472.79L2146.63 472.75Q2146.63 468.51 2145.38 465.48Q2144.13 462.45 2141.81 460.83Q2139.50 459.21 2136.26 459.21Q2133.05 459.21 2130.68 460.85Q2128.31 462.49 2127.04 465.52Q2125.76 468.54 2125.76 472.75L2125.76 472.79Q2125.76 476.95 2127.06 480Q2128.35 483.05 2130.70 484.69Q2133.05 486.33 2136.26 486.33M2181.50 494.04Q2174.48 494.04 2171.30 491.36Q2168.12 488.68 2168.12 482.51L2168.12 459.25L2161.75 459.25L2161.75 451.84L2168.12 451.84L2168.12 441.47L2177.88 441.47L2177.88 451.84L2186.44 451.84L2186.44 459.25L2177.88 459.25L2177.88 480.62Q2177.88 483.70 2179.21 485.07Q2180.54 486.44 2183.43 486.44Q2184.36 486.44 2185.03 486.39Q2185.71 486.33 2186.44 486.29L2186.44 493.62Q2185.48 493.77 2184.20 493.91Q2182.93 494.04 2181.50 494.04M2205.07 493.69L2195.47 493.69L2195.47 451.84L2205.07 451.84L2205.07 493.69M2200.29 445.05Q2197.98 445.05 2196.32 443.41Q2194.66 441.77 2194.66 439.50Q2194.66 437.18 2196.32 435.56Q2197.98 433.94 2200.29 433.94Q2202.60 433.94 2204.26 435.56Q2205.92 437.18 2205.92 439.50Q2205.92 441.77 2204.26 443.41Q2202.60 445.05 2200.29 445.05M2234.16 494.54Q2227.95 494.54 2223.42 491.92Q2218.88 489.30 2216.43 484.42Q2213.98 479.54 2213.98 472.79L2213.98 472.71Q2213.98 466 2216.45 461.12Q2218.92 456.24 2223.45 453.62Q2227.99 450.99 2234.16 450.99Q2240.37 450.99 2244.88 453.62Q2249.39 456.24 2251.86 461.10Q2254.33 465.96 2254.33 472.71L2254.33 472.79Q2254.33 479.54 2251.88 484.42Q2249.43 489.30 2244.92 491.92Q2240.41 494.54 2234.16 494.54M2234.16 486.75Q2237.44 486.75 2239.75 485.09Q2242.07 483.43 2243.30 480.31Q2244.53 477.19 2244.53 472.79L2244.53 472.71Q2244.53 468.31 2243.30 465.21Q2242.07 462.10 2239.75 460.44Q2237.44 458.79 2234.16 458.79Q2230.92 458.79 2228.60 460.44Q2226.29 462.10 2225.05 465.21Q2223.82 468.31 2223.82 472.71L2223.82 472.79Q2223.82 477.22 2225.05 480.35Q2226.29 483.47 2228.60 485.11Q2230.92 486.75 2234.16 486.75M2272.73 493.69L2263.13 493.69L2263.13 451.84L2272.73 451.84L2272.73 458.28L2273.27 458.28Q2274.82 454.89 2277.88 452.94Q2280.95 450.99 2285.54 450.99Q2292.52 450.99 2296.24 455.08Q2299.97 459.17 2299.97 466.62L2299.97 493.69L2290.36 493.69L2290.36 468.78Q2290.36 463.99 2288.30 461.54Q2286.23 459.09 2281.95 459.09Q2279.10 459.09 2277.03 460.37Q2274.97 461.64 2273.85 463.92Q2272.73 466.19 2272.73 469.32L2272.73 493.69M2348.80 466.89L2340.51 476.61L2340.16 463.88L2341.74 463.88L2363.61 438.03L2375.03 438.03L2353.43 463.14L2348.80 466.89M2341.20 493.69L2331.25 493.69L2331.25 438.03L2341.20 438.03L2341.20 493.69M2376.69 493.69L2364.54 493.69L2346.18 467.77L2353.28 461.18L2376.69 493.69M2401.76 494.54Q2395.55 494.54 2391.06 491.90Q2386.56 489.26 2384.15 484.40Q2381.74 479.54 2381.74 472.86L2381.74 472.83Q2381.74 466.23 2384.15 461.33Q2386.56 456.43 2390.96 453.71Q2395.36 450.99 2401.34 450.99Q2407.28 450.99 2411.62 453.62Q2415.96 456.24 2418.29 460.96Q2420.63 465.69 2420.63 472.02L2420.63 475.18L2386.56 475.18L2386.56 468.74L2415.96 468.74L2411.37 474.76L2411.37 470.94Q2411.37 466.77 2410.09 464.03Q2408.82 461.29 2406.60 459.90Q2404.39 458.52 2401.45 458.52Q2398.52 458.52 2396.25 459.94Q2393.97 461.37 2392.64 464.15Q2391.31 466.92 2391.31 470.94L2391.31 474.76Q2391.31 478.61 2392.60 481.35Q2393.89 484.09 2396.30 485.56Q2398.72 487.02 2401.99 487.02Q2404.54 487.02 2406.39 486.27Q2408.24 485.52 2409.40 484.42Q2410.56 483.32 2411.02 482.28L2411.14 482.01L2420.20 482.01L2420.12 482.35Q2419.62 484.48 2418.27 486.62Q2416.92 488.76 2414.69 490.55Q2412.45 492.34 2409.23 493.44Q2406.01 494.54 2401.76 494.54M2434.17 508.24Q2433.16 508.24 2432.12 508.16Q2431.08 508.08 2430.19 508.01L2430.19 500.64Q2430.77 500.72 2431.54 500.77Q2432.31 500.83 2433.12 500.83Q2436.06 500.83 2437.81 499.62Q2439.57 498.40 2440.38 495.59L2440.92 493.73L2425.91 451.84L2436.36 451.84L2447.28 488.53L2444.93 484.75L2447.94 484.75L2445.66 488.53L2456.54 451.84L2466.64 451.84L2451.64 494.74Q2449.86 499.79 2447.55 502.76Q2445.24 505.73 2442 506.98Q2438.76 508.24 2434.17 508.24"/>
</svg>
