<?xml version="1.0" encoding="UTF-8"?>
<svg xmlns="http://www.w3.org/2000/svg" viewBox="0 0 2740 534" role="img" aria-label="Anatomy of a secret link https://secrets.levine.io/s#… : the domain identifies the service, while the Secret ID and encryption key live in the URL fragment after the # and are never sent to the server.">
	<defs>
		<style>
			/* Decorative — real glyphs baked to paths (SF Pro Bold), so the
			   illustration renders identically everywhere and never wraps. */
			.ue-base { fill: currentColor; }
			.ue-key { fill: var(--color-primary); }
			.ue-label-base { fill: currentColor; opacity: 0.72; }
			.ue-brace { fill: none; stroke: currentColor; stroke-opacity: 0.5; stroke-width: 6.5; stroke-linecap: round; stroke-linejoin: round; }
			.ue-brace-key { fill: none; stroke: var(--color-primary); stroke-width: 6.5; stroke-linecap: round; stroke-linejoin: round; }
		</style>
	</defs>
	<path class="ue-base" d="M43.24 187.50L28.98 187.50L28.98 117.04L43.24 117.04L43.24 144.19L43.53 144.19Q45.58 139.31 49.66 136.69Q53.74 134.08 59.60 134.08Q65.31 134.08 69.41 136.60Q73.51 139.11 75.73 143.70Q77.96 148.29 77.96 154.64L77.96 187.50L63.70 187.50L63.70 157.57Q63.70 152.10 61.08 149Q58.47 145.90 53.59 145.90Q50.46 145.90 48.15 147.39Q45.83 148.88 44.53 151.49Q43.24 154.10 43.24 157.52L43.24 187.50M107.89 188.57Q99.20 188.57 95 184.91Q90.80 181.25 90.80 172.85L90.80 145.90L83.52 145.90L83.52 135.16L90.80 135.16L90.80 122.36L105.20 122.36L105.20 135.16L114.77 135.16L114.77 145.90L105.20 145.90L105.20 171.29Q105.20 174.95 106.84 176.39Q108.47 177.83 111.70 177.83Q112.67 177.83 113.40 177.76Q114.14 177.69 114.77 177.59L114.77 188.04Q113.60 188.23 111.87 188.40Q110.13 188.57 107.89 188.57M143.43 188.57Q134.74 188.57 130.54 184.91Q126.34 181.25 126.34 172.85L126.34 145.90L119.07 145.90L119.07 135.16L126.34 135.16L126.34 122.36L140.75 122.36L140.75 135.16L150.32 135.16L150.32 145.90L140.75 145.90L140.75 171.29Q140.75 174.95 142.38 176.39Q144.02 177.83 147.24 177.83Q148.22 177.83 148.95 177.76Q149.68 177.69 150.32 177.59L150.32 188.04Q149.15 188.23 147.41 188.40Q145.68 188.57 143.43 188.57M172.44 204.59L158.18 204.59L158.18 135.16L172.44 135.16L172.44 144.29L172.78 144.29Q174.20 141.11 176.51 138.82Q178.83 136.52 181.93 135.30Q185.04 134.08 188.75 134.08Q195.39 134.08 200.17 137.33Q204.96 140.58 207.54 146.68Q210.13 152.78 210.13 161.28L210.13 161.33Q210.13 169.82 207.57 175.93Q205.01 182.03 200.27 185.30Q195.53 188.57 188.94 188.57Q185.23 188.57 182.06 187.35Q178.88 186.13 176.54 183.91Q174.20 181.69 172.73 178.56L172.44 178.56L172.44 204.59M184.06 176.76Q187.62 176.76 190.21 174.88Q192.80 173 194.21 169.53Q195.63 166.06 195.63 161.33L195.63 161.28Q195.63 156.49 194.21 153.03Q192.80 149.56 190.19 147.73Q187.57 145.90 184.06 145.90Q180.59 145.90 177.96 147.78Q175.32 149.66 173.85 153.10Q172.39 156.54 172.39 161.33L172.39 161.38Q172.39 166.06 173.88 169.53Q175.37 173 177.98 174.88Q180.59 176.76 184.06 176.76M239.04 188.57Q231.81 188.57 226.73 186.47Q221.66 184.38 218.80 180.64Q215.94 176.90 215.36 171.97L215.31 171.53L229.22 171.53L229.32 171.97Q230.01 175.05 232.40 176.76Q234.79 178.47 239.04 178.47Q241.77 178.47 243.68 177.81Q245.58 177.15 246.63 175.93Q247.68 174.71 247.68 173L247.68 172.95Q247.68 170.85 246.17 169.58Q244.65 168.31 240.80 167.43L231.91 165.58Q226.83 164.50 223.44 162.48Q220.04 160.45 218.34 157.45Q216.63 154.44 216.63 150.54L216.63 150.49Q216.63 145.46 219.31 141.80Q222 138.13 226.95 136.11Q231.91 134.08 238.55 134.08Q245.48 134.08 250.34 136.30Q255.20 138.53 257.81 142.29Q260.43 146.04 260.57 150.63L260.57 151.12L247.44 151.12L247.39 150.73Q247.05 147.90 244.78 146.02Q242.51 144.14 238.55 144.14Q236.11 144.14 234.30 144.82Q232.50 145.51 231.52 146.75Q230.54 148 230.54 149.71L230.54 149.76Q230.54 151.07 231.20 152.12Q231.86 153.17 233.42 153.96Q234.99 154.74 237.62 155.32L246.51 157.23Q251.98 158.35 255.37 160.25Q258.77 162.16 260.35 164.92Q261.94 167.68 261.94 171.53L261.94 171.58Q261.94 176.71 259.01 180.52Q256.08 184.33 250.93 186.45Q245.78 188.57 239.04 188.57M276.39 188.33Q273.07 188.33 270.78 186.04Q268.48 183.74 268.48 180.42Q268.48 177.10 270.78 174.80Q273.07 172.51 276.39 172.51Q279.71 172.51 282.01 174.80Q284.30 177.10 284.30 180.42Q284.30 183.74 282.01 186.04Q279.71 188.33 276.39 188.33M276.39 153.56Q273.07 153.56 270.78 151.27Q268.48 148.97 268.48 145.65Q268.48 142.33 270.78 140.04Q273.07 137.74 276.39 137.74Q279.71 137.74 282.01 140.04Q284.30 142.33 284.30 145.65Q284.30 148.97 282.01 151.27Q279.71 153.56 276.39 153.56M306.08 117.04L318.73 117.04L301.10 204.59L288.40 204.59L306.08 117.04M336.35 117.04L349 117.04L331.37 204.59L318.68 204.59L336.35 117.04M375.12 188.57Q367.90 188.57 362.82 186.47Q357.74 184.38 354.88 180.64Q352.03 176.90 351.44 171.97L351.39 171.53L365.31 171.53L365.41 171.97Q366.09 175.05 368.48 176.76Q370.88 178.47 375.12 178.47Q377.86 178.47 379.76 177.81Q381.67 177.15 382.72 175.93Q383.77 174.71 383.77 173L383.77 172.95Q383.77 170.85 382.25 169.58Q380.74 168.31 376.88 167.43L367.99 165.58Q362.92 164.50 359.52 162.48Q356.13 160.45 354.42 157.45Q352.71 154.44 352.71 150.54L352.71 150.49Q352.71 145.46 355.40 141.80Q358.08 138.13 363.04 136.11Q367.99 134.08 374.63 134.08Q381.57 134.08 386.43 136.30Q391.29 138.53 393.90 142.29Q396.51 146.04 396.66 150.63L396.66 151.12L383.52 151.12L383.47 150.73Q383.13 147.90 380.86 146.02Q378.59 144.14 374.63 144.14Q372.19 144.14 370.39 144.82Q368.58 145.51 367.60 146.75Q366.63 148 366.63 149.71L366.63 149.76Q366.63 151.07 367.29 152.12Q367.95 153.17 369.51 153.96Q371.07 154.74 373.71 155.32L382.59 157.23Q388.06 158.35 391.46 160.25Q394.85 162.16 396.44 164.92Q398.02 167.68 398.02 171.53L398.02 171.58Q398.02 176.71 395.09 180.52Q392.16 184.33 387.01 186.45Q381.86 188.57 375.12 188.57M428.88 188.57Q420.88 188.57 415.11 185.28Q409.35 181.98 406.25 175.88Q403.15 169.78 403.15 161.43L403.15 161.38Q403.15 153.03 406.25 146.90Q409.35 140.77 414.99 137.43Q420.63 134.08 428.30 134.08Q435.96 134.08 441.55 137.33Q447.14 140.58 450.20 146.48Q453.25 152.39 453.25 160.30L453.25 164.70L410.13 164.70L410.13 155.71L446.51 155.71L439.72 164.11L439.72 158.64Q439.72 154.05 438.31 150.95Q436.89 147.85 434.38 146.29Q431.86 144.73 428.54 144.73Q425.22 144.73 422.66 146.34Q420.09 147.95 418.65 151.05Q417.21 154.15 417.21 158.64L417.21 164.16Q417.21 168.51 418.65 171.58Q420.09 174.66 422.78 176.29Q425.46 177.93 429.18 177.93Q432.11 177.93 434.25 177Q436.40 176.07 437.77 174.66Q439.14 173.24 439.63 171.78L439.72 171.48L452.81 171.48L452.66 172.02Q452.08 174.90 450.37 177.83Q448.66 180.76 445.75 183.20Q442.85 185.64 438.67 187.11Q434.50 188.57 428.88 188.57M484.50 188.57Q476.54 188.57 470.73 185.25Q464.92 181.93 461.79 175.81Q458.67 169.68 458.67 161.28L458.67 161.23Q458.67 152.83 461.82 146.75Q464.97 140.67 470.75 137.38Q476.54 134.08 484.35 134.08Q491.48 134.08 496.71 136.74Q501.93 139.40 504.88 143.95Q507.84 148.49 508.13 154.15L508.13 154.49L494.90 154.49L494.80 154.05Q494.17 150.29 491.58 147.78Q488.99 145.26 484.55 145.26Q481.08 145.26 478.52 147.19Q475.95 149.12 474.56 152.71Q473.17 156.30 473.17 161.28L473.17 161.33Q473.17 166.46 474.56 170.04Q475.95 173.63 478.52 175.51Q481.08 177.39 484.60 177.39Q488.89 177.39 491.50 174.98Q494.12 172.56 494.85 168.60L494.90 168.16L508.18 168.16L508.18 168.46Q507.84 174.17 504.86 178.71Q501.88 183.25 496.68 185.91Q491.48 188.57 484.50 188.57M529.32 187.50L515.06 187.50L515.06 135.16L529.32 135.16L529.32 144.29L529.62 144.29Q530.79 139.45 533.86 136.77Q536.94 134.08 541.53 134.08Q542.70 134.08 543.78 134.23Q544.85 134.38 545.63 134.62L545.63 147.17Q544.75 146.83 543.38 146.61Q542.02 146.39 540.46 146.39Q536.94 146.39 534.45 147.75Q531.96 149.12 530.64 151.76Q529.32 154.39 529.32 158.20L529.32 187.50M575.27 188.57Q567.26 188.57 561.50 185.28Q555.74 181.98 552.64 175.88Q549.54 169.78 549.54 161.43L549.54 161.38Q549.54 153.03 552.64 146.90Q555.74 140.77 561.38 137.43Q567.02 134.08 574.68 134.08Q582.35 134.08 587.94 137.33Q593.53 140.58 596.58 146.48Q599.63 152.39 599.63 160.30L599.63 164.70L556.52 164.70L556.52 155.71L592.90 155.71L586.11 164.11L586.11 158.64Q586.11 154.05 584.69 150.95Q583.28 147.85 580.76 146.29Q578.25 144.73 574.93 144.73Q571.61 144.73 569.04 146.34Q566.48 147.95 565.04 151.05Q563.60 154.15 563.60 158.64L563.60 164.16Q563.60 168.51 565.04 171.58Q566.48 174.66 569.17 176.29Q571.85 177.93 575.56 177.93Q578.49 177.93 580.64 177Q582.79 176.07 584.16 174.66Q585.52 173.24 586.01 171.78L586.11 171.48L599.20 171.48L599.05 172.02Q598.46 174.90 596.75 177.83Q595.04 180.76 592.14 183.20Q589.23 185.64 585.06 187.11Q580.88 188.57 575.27 188.57M627.76 188.57Q619.07 188.57 614.87 184.91Q610.67 181.25 610.67 172.85L610.67 145.90L603.39 145.90L603.39 135.16L610.67 135.16L610.67 122.36L625.07 122.36L625.07 135.16L634.64 135.16L634.64 145.90L625.07 145.90L625.07 171.29Q625.07 174.95 626.71 176.39Q628.35 177.83 631.57 177.83Q632.54 177.83 633.28 177.76Q634.01 177.69 634.64 177.59L634.64 188.04Q633.47 188.23 631.74 188.40Q630.01 188.57 627.76 188.57M664.04 188.57Q656.81 188.57 651.73 186.47Q646.66 184.38 643.80 180.64Q640.94 176.90 640.36 171.97L640.31 171.53L654.22 171.53L654.32 171.97Q655.01 175.05 657.40 176.76Q659.79 178.47 664.04 178.47Q666.77 178.47 668.68 177.81Q670.58 177.15 671.63 175.93Q672.68 174.71 672.68 173L672.68 172.95Q672.68 170.85 671.17 169.58Q669.65 168.31 665.80 167.43L656.91 165.58Q651.83 164.50 648.44 162.48Q645.04 160.45 643.34 157.45Q641.63 154.44 641.63 150.54L641.63 150.49Q641.63 145.46 644.31 141.80Q647 138.13 651.95 136.11Q656.91 134.08 663.55 134.08Q670.48 134.08 675.34 136.30Q680.20 138.53 682.81 142.29Q685.43 146.04 685.57 150.63L685.57 151.12L672.44 151.12L672.39 150.73Q672.05 147.90 669.78 146.02Q667.51 144.14 663.55 144.14Q661.11 144.14 659.30 144.82Q657.50 145.51 656.52 146.75Q655.54 148 655.54 149.71L655.54 149.76Q655.54 151.07 656.20 152.12Q656.86 153.17 658.42 153.96Q659.99 154.74 662.62 155.32L671.51 157.23Q676.98 158.35 680.37 160.25Q683.77 162.16 685.35 164.92Q686.94 167.68 686.94 171.53L686.94 171.58Q686.94 176.71 684.01 180.52Q681.08 184.33 675.93 186.45Q670.78 188.57 664.04 188.57M701.39 188.33Q698.07 188.33 695.78 186.04Q693.48 183.74 693.48 180.42Q693.48 177.10 695.78 174.80Q698.07 172.51 701.39 172.51Q704.71 172.51 707.01 174.80Q709.30 177.10 709.30 180.42Q709.30 183.74 707.01 186.04Q704.71 188.33 701.39 188.33M732.64 187.50L718.38 187.50L718.38 117.04L732.64 117.04L732.64 187.50M766.09 188.57Q758.08 188.57 752.32 185.28Q746.56 181.98 743.46 175.88Q740.36 169.78 740.36 161.43L740.36 161.38Q740.36 153.03 743.46 146.90Q746.56 140.77 752.20 137.43Q757.84 134.08 765.50 134.08Q773.17 134.08 778.76 137.33Q784.35 140.58 787.40 146.48Q790.46 152.39 790.46 160.30L790.46 164.70L747.34 164.70L747.34 155.71L783.72 155.71L776.93 164.11L776.93 158.64Q776.93 154.05 775.51 150.95Q774.10 147.85 771.58 146.29Q769.07 144.73 765.75 144.73Q762.43 144.73 759.86 146.34Q757.30 147.95 755.86 151.05Q754.42 154.15 754.42 158.64L754.42 164.16Q754.42 168.51 755.86 171.58Q757.30 174.66 759.99 176.29Q762.67 177.93 766.38 177.93Q769.31 177.93 771.46 177Q773.61 176.07 774.98 174.66Q776.34 173.24 776.83 171.78L776.93 171.48L790.02 171.48L789.87 172.02Q789.28 174.90 787.57 177.83Q785.87 180.76 782.96 183.20Q780.05 185.64 775.88 187.11Q771.71 188.57 766.09 188.57M827.66 187.50L811.60 187.50L793.48 135.16L808.72 135.16L819.65 174.90L819.95 174.90L830.74 135.16L845.63 135.16L827.66 187.50M865.16 187.50L850.90 187.50L850.90 135.16L865.16 135.16L865.16 187.50M858.03 128.42Q854.81 128.42 852.61 126.22Q850.42 124.02 850.42 121Q850.42 117.92 852.61 115.75Q854.81 113.57 858.03 113.57Q861.26 113.57 863.45 115.75Q865.65 117.92 865.65 121Q865.65 124.02 863.45 126.22Q861.26 128.42 858.03 128.42M888.94 187.50L874.68 187.50L874.68 135.16L888.94 135.16L888.94 143.75L889.23 143.75Q891.29 139.26 895.29 136.67Q899.29 134.08 905.20 134.08Q913.84 134.08 918.56 139.28Q923.27 144.48 923.27 153.71L923.27 187.50L909.01 187.50L909.01 156.64Q909.01 151.51 906.59 148.71Q904.18 145.90 899.39 145.90Q896.22 145.90 893.87 147.34Q891.53 148.78 890.24 151.37Q888.94 153.96 888.94 157.42L888.94 187.50M956.13 188.57Q948.12 188.57 942.36 185.28Q936.60 181.98 933.50 175.88Q930.40 169.78 930.40 161.43L930.40 161.38Q930.40 153.03 933.50 146.90Q936.60 140.77 942.24 137.43Q947.88 134.08 955.54 134.08Q963.21 134.08 968.80 137.33Q974.39 140.58 977.44 146.48Q980.49 152.39 980.49 160.30L980.49 164.70L937.38 164.70L937.38 155.71L973.76 155.71L966.97 164.11L966.97 158.64Q966.97 154.05 965.55 150.95Q964.14 147.85 961.62 146.29Q959.11 144.73 955.79 144.73Q952.47 144.73 949.90 146.34Q947.34 147.95 945.90 151.05Q944.46 154.15 944.46 158.64L944.46 164.16Q944.46 168.51 945.90 171.58Q947.34 174.66 950.03 176.29Q952.71 177.93 956.42 177.93Q959.35 177.93 961.50 177Q963.65 176.07 965.02 174.66Q966.38 173.24 966.87 171.78L966.97 171.48L980.05 171.48L979.91 172.02Q979.32 174.90 977.61 177.83Q975.90 180.76 973 183.20Q970.09 185.64 965.92 187.11Q961.74 188.57 956.13 188.57M995.24 188.33Q991.92 188.33 989.63 186.04Q987.33 183.74 987.33 180.42Q987.33 177.10 989.63 174.80Q991.92 172.51 995.24 172.51Q998.56 172.51 1000.86 174.80Q1003.15 177.10 1003.15 180.42Q1003.15 183.74 1000.86 186.04Q998.56 188.33 995.24 188.33M1026.44 187.50L1012.18 187.50L1012.18 135.16L1026.44 135.16L1026.44 187.50M1019.31 128.42Q1016.09 128.42 1013.89 126.22Q1011.70 124.02 1011.70 121Q1011.70 117.92 1013.89 115.75Q1016.09 113.57 1019.31 113.57Q1022.54 113.57 1024.73 115.75Q1026.93 117.92 1026.93 121Q1026.93 124.02 1024.73 126.22Q1022.54 128.42 1019.31 128.42M1059.99 188.57Q1052.03 188.57 1046.22 185.30Q1040.41 182.03 1037.23 175.93Q1034.06 169.82 1034.06 161.33L1034.06 161.23Q1034.06 152.78 1037.28 146.70Q1040.50 140.63 1046.31 137.35Q1052.13 134.08 1059.94 134.08Q1067.80 134.08 1073.63 137.33Q1079.47 140.58 1082.69 146.66Q1085.91 152.73 1085.91 161.23L1085.91 161.33Q1085.91 169.87 1082.72 175.98Q1079.52 182.08 1073.71 185.33Q1067.90 188.57 1059.99 188.57M1060.04 177.39Q1063.50 177.39 1066.07 175.51Q1068.63 173.63 1070.02 170.04Q1071.41 166.46 1071.41 161.33L1071.41 161.23Q1071.41 156.15 1070 152.59Q1068.58 149.02 1065.99 147.14Q1063.40 145.26 1059.94 145.26Q1056.52 145.26 1053.96 147.14Q1051.39 149.02 1049.98 152.59Q1048.56 156.15 1048.56 161.23L1048.56 161.33Q1048.56 166.46 1049.95 170.04Q1051.34 173.63 1053.93 175.51Q1056.52 177.39 1060.04 177.39M1106.28 117.04L1118.92 117.04L1101.29 204.59L1088.60 204.59L1106.28 117.04M1145.04 188.57Q1137.82 188.57 1132.74 186.47Q1127.66 184.38 1124.81 180.64Q1121.95 176.90 1121.36 171.97L1121.31 171.53L1135.23 171.53L1135.33 171.97Q1136.01 175.05 1138.40 176.76Q1140.80 178.47 1145.04 178.47Q1147.78 178.47 1149.68 177.81Q1151.59 177.15 1152.64 175.93Q1153.69 174.71 1153.69 173L1153.69 172.95Q1153.69 170.85 1152.17 169.58Q1150.66 168.31 1146.80 167.43L1137.92 165.58Q1132.84 164.50 1129.44 162.48Q1126.05 160.45 1124.34 157.45Q1122.63 154.44 1122.63 150.54L1122.63 150.49Q1122.63 145.46 1125.32 141.80Q1128 138.13 1132.96 136.11Q1137.92 134.08 1144.56 134.08Q1151.49 134.08 1156.35 136.30Q1161.21 138.53 1163.82 142.29Q1166.43 146.04 1166.58 150.63L1166.58 151.12L1153.44 151.12L1153.39 150.73Q1153.05 147.90 1150.78 146.02Q1148.51 144.14 1144.56 144.14Q1142.12 144.14 1140.31 144.82Q1138.50 145.51 1137.53 146.75Q1136.55 148 1136.55 149.71L1136.55 149.76Q1136.55 151.07 1137.21 152.12Q1137.87 153.17 1139.43 153.96Q1140.99 154.74 1143.63 155.32L1152.52 157.23Q1157.98 158.35 1161.38 160.25Q1164.77 162.16 1166.36 164.92Q1167.95 167.68 1167.95 171.53L1167.95 171.58Q1167.95 176.71 1165.02 180.52Q1162.09 184.33 1156.93 186.45Q1151.78 188.57 1145.04 188.57M1193.29 163.62L1188.75 187.50L1177.86 187.50L1191.38 117.04L1202.22 117.04L1197.97 139.26L1197.39 139.26L1192.70 163.62L1193.29 163.62M1226 117.04L1212.53 187.50L1201.59 187.50L1206.13 163.57L1206.71 163.57L1211.40 139.21L1210.82 139.21L1215.11 117.04L1226 117.04M1229.66 159.23L1227.66 169.82L1170.34 169.82L1172.34 159.23L1189.09 159.23L1189.09 159.81L1213.65 159.81L1213.65 159.23L1229.66 159.23M1234.21 133.89L1232.20 144.38L1215.50 144.38L1215.50 143.80L1191.04 143.80L1190.99 144.38L1174.83 144.38L1176.88 133.89"/>
	<path class="ue-key" d="M1266.97 187.50L1240.06 187.50L1240.06 117.04L1266.97 117.04Q1277.56 117.04 1285.06 121.09Q1292.55 125.15 1296.56 132.93Q1300.56 140.72 1300.56 151.90L1300.56 152Q1300.56 163.18 1296.58 171.14Q1292.60 179.10 1285.08 183.30Q1277.56 187.50 1266.97 187.50M1254.81 129.20L1254.81 175.29L1265.21 175.29Q1271.80 175.29 1276.34 172.66Q1280.88 170.02 1283.20 164.84Q1285.52 159.67 1285.52 152.05L1285.52 151.95Q1285.52 144.58 1283.16 139.50Q1280.79 134.42 1276.25 131.81Q1271.71 129.20 1265.21 129.20L1254.81 129.20M1304.62 204.74Q1303.64 204.74 1302.49 204.69Q1301.34 204.64 1300.71 204.59L1300.71 193.85Q1301.10 193.90 1301.56 193.92Q1302.03 193.95 1302.52 193.95Q1306.08 193.95 1307.59 192.65Q1309.11 191.36 1309.11 188.18L1309.11 135.16L1323.37 135.16L1323.37 188.57Q1323.37 196.53 1318.60 200.63Q1313.84 204.74 1304.62 204.74M1316.24 128.42Q1313.01 128.42 1310.82 126.22Q1308.62 124.02 1308.62 121Q1308.62 117.92 1310.82 115.75Q1313.01 113.57 1316.24 113.57Q1319.46 113.57 1321.66 115.75Q1323.85 117.92 1323.85 121Q1323.85 124.02 1321.66 126.22Q1319.46 128.42 1316.24 128.42M1358.08 187.50L1343.09 187.50L1329.18 135.16L1343.53 135.16L1351.44 173.97L1351.73 173.97L1361.01 135.16L1374.68 135.16L1384.01 173.97L1384.30 173.97L1392.26 135.16L1406.32 135.16L1392.46 187.50L1377.27 187.50L1367.80 150.49L1367.51 150.49L1358.08 187.50M1431.37 187.50L1415.89 187.50L1446.22 129.05L1446.22 128.76L1410.38 128.76L1410.38 117.04L1460.77 117.04L1460.77 128.91L1431.37 187.50M1498.90 148.88L1484.50 166.65L1484.50 149.27L1485.43 149.27L1511.26 117.04L1527.66 117.04L1501.78 148.88L1498.90 148.88M1485.08 187.50L1470.34 187.50L1470.34 117.04L1485.08 117.04L1485.08 187.50M1529.47 187.50L1511.84 187.50L1489.23 154.10L1499.88 144.43L1529.47 187.50M1548.71 204.59L1534.45 204.59L1534.45 135.16L1548.71 135.16L1548.71 144.29L1549.05 144.29Q1550.46 141.11 1552.78 138.82Q1555.10 136.52 1558.20 135.30Q1561.30 134.08 1565.02 134.08Q1571.66 134.08 1576.44 137.33Q1581.23 140.58 1583.81 146.68Q1586.40 152.78 1586.40 161.28L1586.40 161.33Q1586.40 169.82 1583.84 175.93Q1581.28 182.03 1576.54 185.30Q1571.80 188.57 1565.21 188.57Q1561.50 188.57 1558.33 187.35Q1555.15 186.13 1552.81 183.91Q1550.46 181.69 1549 178.56L1548.71 178.56L1548.71 204.59M1560.33 176.76Q1563.89 176.76 1566.48 174.88Q1569.07 173 1570.48 169.53Q1571.90 166.06 1571.90 161.33L1571.90 161.28Q1571.90 156.49 1570.48 153.03Q1569.07 149.56 1566.46 147.73Q1563.84 145.90 1560.33 145.90Q1556.86 145.90 1554.22 147.78Q1551.59 149.66 1550.12 153.10Q1548.66 156.54 1548.66 161.33L1548.66 161.38Q1548.66 166.06 1550.15 169.53Q1551.64 173 1554.25 174.88Q1556.86 176.76 1560.33 176.76M1645.34 187.50L1594.12 187.50L1594.12 177.39L1619.02 154.10Q1623.61 149.85 1625.95 147.02Q1628.30 144.19 1629.15 141.94Q1630.01 139.70 1630.01 137.26L1630.01 137.16Q1630.01 134.28 1628.64 132.06Q1627.27 129.83 1624.85 128.56Q1622.44 127.29 1619.31 127.29Q1615.70 127.29 1612.96 128.74Q1610.23 130.18 1608.67 132.69Q1607.11 135.21 1607.01 138.38L1606.96 138.82L1593.29 138.82L1593.29 138.43Q1593.29 131.79 1596.66 126.68Q1600.03 121.58 1605.91 118.70Q1611.79 115.82 1619.21 115.82Q1626.69 115.82 1632.35 118.43Q1638.01 121.04 1641.19 125.68Q1644.36 130.32 1644.36 136.33L1644.36 136.43Q1644.36 140.67 1642.82 144.31Q1641.29 147.95 1637.77 152.03Q1634.25 156.10 1628.15 161.72L1607.74 180.32L1613.40 170.41L1613.40 180.32L1607.79 175.78L1645.34 175.78L1645.34 187.50M1700.86 187.50L1655.30 187.50L1655.30 117.04L1670.04 117.04L1670.04 175.34L1700.86 175.34L1700.86 187.50M1722.63 187.50L1708.38 187.50L1708.38 135.16L1722.63 135.16L1722.63 143.95L1722.93 143.95Q1724.54 139.45 1728.42 136.77Q1732.30 134.08 1737.57 134.08Q1741.24 134.08 1744.17 135.35Q1747.10 136.62 1749.12 139.01Q1751.15 141.41 1751.98 144.87L1752.27 144.87Q1753.44 141.55 1755.81 139.14Q1758.18 136.72 1761.43 135.40Q1764.67 134.08 1768.53 134.08Q1773.66 134.08 1777.52 136.28Q1781.37 138.48 1783.52 142.43Q1785.67 146.39 1785.67 151.71L1785.67 187.50L1771.41 187.50L1771.41 155.27Q1771.41 152.25 1770.41 150.15Q1769.41 148.05 1767.53 146.97Q1765.65 145.90 1762.87 145.90Q1760.18 145.90 1758.16 147.12Q1756.13 148.34 1755.01 150.54Q1753.88 152.73 1753.88 155.66L1753.88 187.50L1740.16 187.50L1740.16 154.83Q1740.16 152 1739.14 150Q1738.11 148 1736.23 146.95Q1734.35 145.90 1731.71 145.90Q1729.03 145.90 1726.98 147.17Q1724.93 148.44 1723.78 150.68Q1722.63 152.93 1722.63 155.91L1722.63 187.50M1827.71 188.72Q1817.26 188.72 1809.62 184.28Q1801.98 179.83 1797.85 171.66Q1793.73 163.48 1793.73 152.29L1793.73 152.20Q1793.73 140.97 1797.88 132.81Q1802.03 124.66 1809.67 120.24Q1817.31 115.82 1827.71 115.82Q1838.16 115.82 1845.78 120.26Q1853.39 124.71 1857.54 132.84Q1861.70 140.97 1861.70 152.20L1861.70 152.29Q1861.70 163.48 1857.54 171.66Q1853.39 179.83 1845.80 184.28Q1838.21 188.72 1827.71 188.72M1827.71 176.22Q1833.57 176.22 1837.79 173.27Q1842.02 170.31 1844.31 164.94Q1846.61 159.57 1846.61 152.29L1846.61 152.20Q1846.61 144.82 1844.29 139.48Q1841.97 134.13 1837.72 131.23Q1833.47 128.32 1827.71 128.32Q1821.95 128.32 1817.70 131.20Q1813.45 134.08 1811.11 139.43Q1808.77 144.78 1808.77 152.20L1808.77 152.29Q1808.77 159.62 1811.08 164.99Q1813.40 170.36 1817.65 173.29Q1821.90 176.22 1827.71 176.22M1859.30 194.09L1845.29 194.09L1823.51 163.33L1837.53 163.33L1859.30 194.09M1917.90 187.50L1903.88 187.50L1903.88 174.56L1868.82 174.56L1868.82 162.26Q1871.66 157.76 1874.49 153.22Q1877.32 148.68 1880.15 144.17Q1882.98 139.65 1885.79 135.13Q1888.60 130.62 1891.43 126.07Q1894.26 121.53 1897.10 117.04L1917.90 117.04L1917.90 162.79L1927.17 162.79L1927.17 174.56L1917.90 174.56L1917.90 187.50M1881.67 162.79L1881.67 163.18L1904.18 163.18L1904.18 127.69L1903.83 127.69Q1901.59 131.20 1899.39 134.72Q1897.19 138.23 1894.97 141.72Q1892.75 145.21 1890.53 148.75Q1888.31 152.29 1886.08 155.79Q1883.86 159.28 1881.67 162.79M1964.58 187.50L1948.51 187.50L1930.40 135.16L1945.63 135.16L1956.57 174.90L1956.86 174.90L1967.65 135.16L1982.54 135.16L1964.58 187.50M2020.34 187.50L2005.59 187.50L2005.59 129.20L1985.23 129.20L1985.23 117.04L2040.75 117.04L2040.75 129.20L2020.34 129.20L2020.34 187.50M2061.94 187.50L2047.68 187.50L2047.68 135.16L2061.94 135.16L2061.94 143.75L2062.23 143.75Q2064.28 139.26 2068.29 136.67Q2072.29 134.08 2078.20 134.08Q2086.84 134.08 2091.55 139.28Q2096.27 144.48 2096.27 153.71L2096.27 187.50L2082.01 187.50L2082.01 156.64Q2082.01 151.51 2079.59 148.71Q2077.17 145.90 2072.39 145.90Q2069.21 145.90 2066.87 147.34Q2064.53 148.78 2063.23 151.37Q2061.94 153.96 2061.94 157.42L2061.94 187.50M2137.72 187.50L2113.89 187.50L2113.89 176.51L2133.96 176.51Q2140.31 176.51 2143.68 173.95Q2147.05 171.39 2147.05 166.50L2147.05 166.41Q2147.05 163.18 2145.48 160.96Q2143.92 158.74 2140.87 157.62Q2137.82 156.49 2133.33 156.49L2113.89 156.49L2113.89 146.48L2131.57 146.48Q2137.82 146.48 2141.07 143.97Q2144.31 141.46 2144.31 136.91L2144.31 136.82Q2144.31 132.62 2141.43 130.30Q2138.55 127.98 2133.38 127.98L2113.89 127.98L2113.89 117.04L2137.18 117.04Q2143.87 117.04 2148.71 119.19Q2153.54 121.34 2156.18 125.32Q2158.81 129.30 2158.81 134.72L2158.81 134.81Q2158.81 138.67 2157.03 141.97Q2155.25 145.26 2152.17 147.44Q2149.10 149.61 2145.19 150.15L2145.19 150.44Q2150.12 150.78 2153.93 153.05Q2157.74 155.32 2159.91 159.01Q2162.09 162.70 2162.09 167.33L2162.09 167.43Q2162.09 173.58 2159.13 178.08Q2156.18 182.57 2150.73 185.03Q2145.29 187.50 2137.72 187.50M2121.27 187.50L2106.52 187.50L2106.52 117.04L2121.27 117.04L2121.27 187.50M2197.10 188.72Q2188.70 188.72 2182.30 186.13Q2175.90 183.54 2172.29 178.93Q2168.68 174.32 2168.68 168.26L2168.68 168.16Q2168.68 163.57 2170.78 159.91Q2172.88 156.25 2176.54 153.81Q2180.20 151.37 2184.94 150.44L2184.94 150.15Q2178.83 148.63 2175.05 144.51Q2171.27 140.38 2171.27 134.72L2171.27 134.62Q2171.27 129.15 2174.54 124.93Q2177.81 120.70 2183.64 118.26Q2189.48 115.82 2197.10 115.82Q2204.71 115.82 2210.52 118.26Q2216.33 120.70 2219.63 124.93Q2222.93 129.15 2222.93 134.62L2222.93 134.72Q2222.93 140.38 2219.14 144.51Q2215.36 148.63 2209.25 150.15L2209.25 150.44Q2213.99 151.37 2217.65 153.81Q2221.31 156.25 2223.39 159.91Q2225.46 163.57 2225.46 168.16L2225.46 168.26Q2225.46 174.32 2221.88 178.93Q2218.29 183.54 2211.89 186.13Q2205.49 188.72 2197.10 188.72M2197.10 177.98Q2200.95 177.98 2203.88 176.61Q2206.81 175.24 2208.50 172.80Q2210.18 170.36 2210.18 167.29L2210.18 167.19Q2210.18 164.06 2208.52 161.62Q2206.86 159.18 2203.91 157.79Q2200.95 156.40 2197.10 156.40Q2193.19 156.40 2190.24 157.79Q2187.28 159.18 2185.62 161.62Q2183.96 164.06 2183.96 167.19L2183.96 167.29Q2183.96 170.36 2185.65 172.80Q2187.33 175.24 2190.28 176.61Q2193.24 177.98 2197.10 177.98M2197.10 145.70Q2200.42 145.70 2202.96 144.48Q2205.49 143.26 2206.91 141.09Q2208.33 138.92 2208.33 136.08L2208.33 135.99Q2208.33 133.15 2206.89 131.01Q2205.45 128.86 2202.91 127.66Q2200.37 126.46 2197.10 126.46Q2193.78 126.46 2191.24 127.66Q2188.70 128.86 2187.26 131.01Q2185.82 133.15 2185.82 135.99L2185.82 136.08Q2185.82 138.92 2187.26 141.09Q2188.70 143.26 2191.24 144.48Q2193.78 145.70 2197.10 145.70M2255.69 188.57Q2248.46 188.57 2243.38 186.47Q2238.31 184.38 2235.45 180.64Q2232.59 176.90 2232.01 171.97L2231.96 171.53L2245.88 171.53L2245.97 171.97Q2246.66 175.05 2249.05 176.76Q2251.44 178.47 2255.69 178.47Q2258.42 178.47 2260.33 177.81Q2262.23 177.15 2263.28 175.93Q2264.33 174.71 2264.33 173L2264.33 172.95Q2264.33 170.85 2262.82 169.58Q2261.30 168.31 2257.45 167.43L2248.56 165.58Q2243.48 164.50 2240.09 162.48Q2236.70 160.45 2234.99 157.45Q2233.28 154.44 2233.28 150.54L2233.28 150.49Q2233.28 145.46 2235.96 141.80Q2238.65 138.13 2243.60 136.11Q2248.56 134.08 2255.20 134.08Q2262.13 134.08 2266.99 136.30Q2271.85 138.53 2274.46 142.29Q2277.08 146.04 2277.22 150.63L2277.22 151.12L2264.09 151.12L2264.04 150.73Q2263.70 147.90 2261.43 146.02Q2259.16 144.14 2255.20 144.14Q2252.76 144.14 2250.95 144.82Q2249.15 145.51 2248.17 146.75Q2247.19 148 2247.19 149.71L2247.19 149.76Q2247.19 151.07 2247.85 152.12Q2248.51 153.17 2250.07 153.96Q2251.64 154.74 2254.27 155.32L2263.16 157.23Q2268.63 158.35 2272.02 160.25Q2275.42 162.16 2277 164.92Q2278.59 167.68 2278.59 171.53L2278.59 171.58Q2278.59 176.71 2275.66 180.52Q2272.73 184.33 2267.58 186.45Q2262.43 188.57 2255.69 188.57M2301.59 187.50L2286.84 187.50L2286.84 117.04L2315.94 117.04Q2323.85 117.04 2329.49 119.73Q2335.13 122.41 2338.14 127.47Q2341.14 132.52 2341.14 139.60L2341.14 139.70Q2341.14 146.63 2337.70 152.05Q2334.25 157.47 2328.39 159.77L2343.24 187.50L2326.54 187.50L2313.40 161.96Q2313.26 161.96 2313.06 161.96Q2312.87 161.96 2312.67 161.96L2301.59 161.96L2301.59 187.50M2301.59 128.56L2301.59 150.78L2314.33 150.78Q2319.85 150.78 2322.95 147.83Q2326.05 144.87 2326.05 139.70L2326.05 139.60Q2326.05 134.52 2322.83 131.54Q2319.61 128.56 2314.14 128.56L2301.59 128.56M2376.20 188.72Q2368.19 188.72 2362.23 186.11Q2356.28 183.50 2352.78 178.86Q2349.29 174.22 2348.80 168.16L2348.76 167.53L2362.82 167.53L2362.92 168.07Q2363.26 170.61 2364.94 172.58Q2366.63 174.56 2369.48 175.71Q2372.34 176.86 2376.15 176.86Q2379.96 176.86 2382.74 175.61Q2385.52 174.37 2387.06 172.14Q2388.60 169.92 2388.60 167.04L2388.60 166.94Q2388.60 161.87 2385.04 159.18Q2381.47 156.49 2375.07 156.49L2367.02 156.49L2367.02 146L2374.88 146Q2378.59 146 2381.32 144.78Q2384.06 143.55 2385.55 141.38Q2387.04 139.21 2387.04 136.38L2387.04 136.28Q2387.04 133.40 2385.74 131.37Q2384.45 129.35 2381.98 128.25Q2379.52 127.15 2376.05 127.15Q2372.63 127.15 2370 128.27Q2367.36 129.39 2365.80 131.42Q2364.23 133.45 2363.89 136.18L2363.84 136.62L2350.32 136.62L2350.37 136.04Q2350.86 129.88 2354.15 125.37Q2357.45 120.85 2363.06 118.33Q2368.68 115.82 2376.05 115.82Q2383.67 115.82 2389.26 118.14Q2394.85 120.46 2397.93 124.61Q2401 128.76 2401 134.33L2401 134.42Q2401 138.82 2399.05 142.14Q2397.10 145.46 2393.75 147.61Q2390.41 149.76 2386.30 150.63L2386.30 150.93Q2394.17 151.66 2398.88 156.01Q2403.59 160.35 2403.59 167.53L2403.59 167.63Q2403.59 173.93 2400.17 178.66Q2396.75 183.40 2390.60 186.06Q2384.45 188.72 2376.20 188.72M2424.05 187.50L2409.06 187.50L2425.46 161.43L2409.16 135.16L2425.22 135.16L2434.64 152.83L2434.94 152.83L2444.21 135.16L2459.74 135.16L2443.38 161.04L2459.60 187.50L2444.12 187.50L2434.16 169.34L2433.86 169.34L2424.05 187.50M2519.51 187.50L2465.11 187.50L2465.11 177.88L2500.95 129.49L2500.95 129.20L2465.94 129.20L2465.94 117.04L2518.53 117.04L2518.53 126.61L2482.84 175.05L2482.84 175.34L2519.51 175.34L2519.51 187.50M2557.25 188.72Q2550.86 188.72 2545.51 186.47Q2540.16 184.23 2536.18 179.76Q2532.20 175.29 2530.03 168.58Q2527.86 161.87 2527.86 152.88L2527.86 152.78Q2527.86 141.26 2531.42 132.96Q2534.99 124.66 2541.60 120.24Q2548.22 115.82 2557.40 115.82Q2564.23 115.82 2569.70 118.24Q2575.17 120.65 2578.76 124.90Q2582.35 129.15 2583.38 134.57L2583.47 135.06L2568.92 135.06L2568.78 134.62Q2567.90 132.47 2566.31 130.88Q2564.72 129.30 2562.48 128.39Q2560.23 127.49 2557.35 127.49Q2552.22 127.49 2548.93 130.47Q2545.63 133.45 2543.97 138.48Q2542.31 143.51 2542.02 149.76Q2541.97 150.49 2541.94 151.22Q2541.92 151.95 2541.92 152.69L2544.17 164.40Q2544.17 167.92 2545.88 170.78Q2547.58 173.63 2550.51 175.32Q2553.44 177 2557.06 177Q2560.67 177 2563.60 175.34Q2566.53 173.68 2568.29 170.87Q2570.04 168.07 2570.04 164.60L2570.04 164.50Q2570.04 160.84 2568.36 158.01Q2566.68 155.18 2563.77 153.59Q2560.87 152 2557.20 152Q2553.54 152 2550.56 153.59Q2547.58 155.18 2545.88 157.96Q2544.17 160.74 2544.17 164.31L2544.17 164.40L2541.19 164.40L2541.19 152.44L2542.21 152.44Q2543.63 149.17 2546.34 146.63Q2549.05 144.09 2552.88 142.60Q2556.71 141.11 2561.45 141.11Q2568.29 141.11 2573.44 144.07Q2578.59 147.02 2581.50 152.20Q2584.40 157.37 2584.40 163.96L2584.40 164.06Q2584.40 171.29 2580.88 176.83Q2577.37 182.37 2571.24 185.55Q2565.11 188.72 2557.25 188.72M2601.93 204.74Q2599.83 204.74 2597.88 204.54Q2595.92 204.35 2594.65 204.10L2594.65 193.51Q2595.44 193.65 2596.66 193.82Q2597.88 193.99 2599.44 193.99Q2602.66 193.99 2604.52 192.92Q2606.37 191.85 2607.30 189.21L2607.94 187.50L2589.43 135.16L2605.10 135.16L2616.92 178.91L2615.02 176.07L2617.70 176.07L2615.80 178.91L2627.61 135.16L2642.65 135.16L2624.68 188.43Q2622.63 194.58 2619.53 198.14Q2616.43 201.71 2612.09 203.22Q2607.74 204.74 2601.93 204.74M2663.60 187.50L2648.85 187.50L2648.85 117.04L2663.60 117.04L2663.60 145.65L2695.34 145.65L2695.34 117.04L2710.08 117.04L2710.08 187.50L2695.34 187.50L2695.34 157.81L2663.60 157.81"/>
	<path class="ue-brace" d="M24,244 Q24,303.8 54,303.8 L526.2998046875,303.8 Q556.2998046875,303.8 556.2998046875,374 Q556.2998046875,303.8 586.2998046875,303.8 L1058.599609375,303.8 Q1088.599609375,303.8 1088.599609375,244"/>
	<path class="ue-brace-key" d="M1234.205078125,244 Q1234.205078125,303.8 1264.205078125,303.8 L1945.07421875,303.8 Q1975.07421875,303.8 1975.07421875,374 Q1975.07421875,303.8 2005.07421875,303.8 L2685.943359375,303.8 Q2715.943359375,303.8 2715.943359375,244"/>
	<path class="ue-label-base" d="M443.97 477.69L424.99 477.69L424.99 422.03L443.97 422.03Q452.23 422.03 458.11 425.33Q463.99 428.63 467.12 434.84Q470.24 441.05 470.24 449.81L470.24 449.88Q470.24 458.64 467.12 464.87Q463.99 471.10 458.13 474.40Q452.27 477.69 443.97 477.69M431.94 428.28L431.94 471.45L443.51 471.45Q449.76 471.45 454.16 468.90Q458.55 466.35 460.85 461.55Q463.14 456.75 463.14 449.96L463.14 449.88Q463.14 443.06 460.83 438.21Q458.51 433.37 454.12 430.83Q449.72 428.28 443.51 428.28L431.94 428.28M497.59 478.43Q491.77 478.43 487.48 475.84Q483.20 473.26 480.87 468.48Q478.53 463.69 478.53 457.10L478.53 457.02Q478.53 450.42 480.87 445.64Q483.20 440.86 487.48 438.29Q491.77 435.73 497.55 435.73Q503.41 435.73 507.68 438.29Q511.94 440.86 514.27 445.64Q516.61 450.42 516.61 457.02L516.61 457.10Q516.61 463.69 514.27 468.48Q511.94 473.26 507.68 475.84Q503.41 478.43 497.59 478.43M497.59 472.49Q501.41 472.49 504.13 470.66Q506.85 468.82 508.29 465.39Q509.74 461.96 509.74 457.10L509.74 457.02Q509.74 452.16 508.29 448.73Q506.85 445.29 504.13 443.48Q501.41 441.67 497.55 441.67Q493.73 441.67 491.01 443.48Q488.29 445.29 486.85 448.73Q485.40 452.16 485.40 457.02L485.40 457.10Q485.40 461.96 486.85 465.39Q488.29 468.82 491.01 470.66Q493.73 472.49 497.59 472.49M532.85 477.69L526.13 477.69L526.13 436.46L532.85 436.46L532.85 442.67L533.39 442.67Q534.74 439.43 537.63 437.58Q540.52 435.73 544.53 435.73Q547.35 435.73 549.57 436.65Q551.79 437.58 553.41 439.22Q555.03 440.86 555.99 443.09L556.49 443.09Q557.61 440.86 559.50 439.20Q561.39 437.54 563.86 436.63Q566.33 435.73 569.18 435.73Q573.35 435.73 576.30 437.31Q579.25 438.89 580.81 441.92Q582.38 444.95 582.38 449.19L582.38 477.69L575.66 477.69L575.66 450.73Q575.66 447.72 574.72 445.72Q573.77 443.71 571.85 442.69Q569.92 441.67 567.06 441.67Q564.25 441.67 562.11 442.96Q559.96 444.25 558.77 446.41Q557.57 448.57 557.57 451.27L557.57 477.69L550.86 477.69L550.86 449.77Q550.86 447.34 549.82 445.50Q548.78 443.67 546.85 442.67Q544.92 441.67 542.34 441.67Q539.64 441.67 537.49 443.06Q535.35 444.44 534.10 446.80Q532.85 449.15 532.85 452.08L532.85 477.69M605.13 478.43Q601.20 478.43 598.09 476.92Q594.99 475.42 593.20 472.66Q591.40 469.90 591.40 466.16L591.40 466.08Q591.40 462.42 593.16 459.82Q594.91 457.21 598.27 455.71Q601.62 454.20 606.41 453.93L621.57 453.05L621.57 458.37L607.22 459.26Q602.63 459.53 600.45 461.22Q598.27 462.92 598.27 465.97L598.27 466.05Q598.27 469.13 600.60 470.87Q602.94 472.60 606.56 472.60Q609.92 472.60 612.56 471.25Q615.20 469.90 616.71 467.55Q618.21 465.20 618.21 462.27L618.21 449.57Q618.21 445.76 615.90 443.71Q613.58 441.67 609.03 441.67Q605.25 441.67 602.86 443.07Q600.47 444.48 599.70 446.99L599.66 447.14L593.02 447.14L593.06 446.87Q593.52 443.60 595.65 441.09Q597.77 438.58 601.24 437.15Q604.71 435.73 609.22 435.73Q614.20 435.73 617.73 437.37Q621.26 439.01 623.09 442.07Q624.92 445.14 624.92 449.38L624.92 477.69L618.21 477.69L618.21 471.48L617.71 471.48Q616.44 473.68 614.55 475.25Q612.66 476.81 610.30 477.62Q607.95 478.43 605.13 478.43M643.25 477.69L636.53 477.69L636.53 436.46L643.25 436.46L643.25 477.69M639.93 428.74Q638.08 428.74 636.73 427.39Q635.38 426.04 635.38 424.19Q635.38 422.30 636.73 420.99Q638.08 419.68 639.93 419.68Q641.82 419.68 643.13 420.99Q644.44 422.30 644.44 424.19Q644.44 426.04 643.13 427.39Q641.82 428.74 639.93 428.74M661.76 477.69L655.05 477.69L655.05 436.46L661.76 436.46L661.76 442.59L662.30 442.59Q663.88 439.39 666.87 437.56Q669.86 435.73 674.45 435.73Q681.36 435.73 685.10 439.72Q688.84 443.71 688.84 450.96L688.84 477.69L682.13 477.69L682.13 452.51Q682.13 447.03 679.78 444.35Q677.42 441.67 672.52 441.67Q669.25 441.67 666.83 443.09Q664.42 444.52 663.09 447.12Q661.76 449.73 661.76 453.32"/>
	<path class="ue-key" d="M1526.80 478.93Q1520.75 478.93 1516.20 476.96Q1511.64 474.99 1509 471.50Q1506.36 468.01 1505.93 463.46L1505.90 463L1512.84 463L1512.92 463.46Q1513.23 466.24 1515.08 468.26Q1516.93 470.29 1520.05 471.41Q1523.18 472.53 1527.19 472.53Q1531.05 472.53 1534 471.33Q1536.95 470.13 1538.61 467.97Q1540.27 465.81 1540.27 463L1540.27 462.96Q1540.27 459.45 1537.72 457.12Q1535.17 454.78 1529.43 453.51L1523.25 452.16Q1517.74 450.92 1514.21 448.80Q1510.68 446.68 1508.98 443.61Q1507.28 440.55 1507.28 436.54L1507.28 436.50Q1507.32 431.87 1509.83 428.34Q1512.34 424.81 1516.75 422.80Q1521.17 420.80 1526.88 420.80Q1532.44 420.80 1536.72 422.78Q1541 424.77 1543.53 428.15Q1546.05 431.52 1546.32 435.80L1546.36 436.34L1539.42 436.34L1539.34 435.84Q1538.95 433.26 1537.33 431.33Q1535.71 429.40 1533.01 428.30Q1530.31 427.20 1526.69 427.20Q1523.18 427.20 1520.40 428.30Q1517.62 429.40 1516 431.43Q1514.38 433.45 1514.38 436.30L1514.38 436.34Q1514.38 438.58 1515.48 440.32Q1516.58 442.05 1518.91 443.33Q1521.25 444.60 1524.99 445.41L1531.16 446.80Q1536.99 448.07 1540.54 450.11Q1544.08 452.16 1545.72 455.13Q1547.36 458.10 1547.36 462.15L1547.36 462.19Q1547.36 467.36 1544.84 471.10Q1542.31 474.84 1537.68 476.88Q1533.05 478.93 1526.80 478.93M1574.10 478.43Q1568.19 478.43 1563.95 475.82Q1559.71 473.22 1557.43 468.46Q1555.16 463.69 1555.16 457.21L1555.16 457.17Q1555.16 450.81 1557.43 445.99Q1559.71 441.17 1563.89 438.45Q1568.08 435.73 1573.67 435.73Q1579.26 435.73 1583.31 438.33Q1587.36 440.93 1589.52 445.58Q1591.69 450.23 1591.69 456.40L1591.69 458.99L1558.59 458.99L1558.59 453.62L1588.29 453.62L1584.97 458.52L1584.97 455.90Q1584.97 451.04 1583.51 447.92Q1582.04 444.79 1579.50 443.25Q1576.95 441.71 1573.63 441.71Q1570.31 441.71 1567.69 443.33Q1565.07 444.95 1563.55 448.11Q1562.02 451.27 1562.02 455.90L1562.02 458.52Q1562.02 462.92 1563.51 466.03Q1564.99 469.13 1567.75 470.79Q1570.51 472.45 1574.25 472.45Q1576.99 472.45 1579.05 471.68Q1581.12 470.91 1582.47 469.69Q1583.82 468.48 1584.36 467.13L1584.51 466.78L1591.18 466.78L1591.11 467.09Q1590.60 469.29 1589.22 471.31Q1587.83 473.34 1585.67 474.96Q1583.51 476.58 1580.58 477.50Q1577.64 478.43 1574.10 478.43M1618.15 478.43Q1612.36 478.43 1608.10 475.79Q1603.84 473.14 1601.50 468.34Q1599.17 463.54 1599.17 456.98L1599.17 456.90Q1599.17 450.46 1601.50 445.72Q1603.84 440.97 1608.08 438.35Q1612.32 435.73 1618.11 435.73Q1623.16 435.73 1626.81 437.54Q1630.45 439.35 1632.61 442.36Q1634.77 445.37 1635.35 449L1635.39 449.27L1628.75 449.27L1628.68 449.11Q1627.94 446.03 1625.26 443.85Q1622.58 441.67 1618.11 441.67Q1614.41 441.67 1611.71 443.54Q1609 445.41 1607.52 448.84Q1606.03 452.27 1606.03 456.94L1606.03 456.98Q1606.03 461.76 1607.54 465.24Q1609.04 468.71 1611.76 470.60Q1614.48 472.49 1618.11 472.49Q1622.31 472.49 1624.96 470.62Q1627.60 468.75 1628.68 465.27L1628.75 465.04L1635.39 465L1635.31 465.39Q1634.54 469.17 1632.34 472.12Q1630.14 475.07 1626.59 476.75Q1623.05 478.43 1618.15 478.43M1651.05 477.69L1644.34 477.69L1644.34 436.46L1651.05 436.46L1651.05 442.79L1651.59 442.79Q1652.71 439.47 1655.49 437.60Q1658.26 435.73 1662.28 435.73Q1663.20 435.73 1664.09 435.82Q1664.98 435.92 1665.48 436L1665.48 442.52Q1664.59 442.32 1663.61 442.23Q1662.62 442.13 1661.47 442.13Q1658.42 442.13 1656.07 443.36Q1653.71 444.60 1652.38 446.85Q1651.05 449.11 1651.05 452.16L1651.05 477.69M1689.97 478.43Q1684.07 478.43 1679.83 475.82Q1675.58 473.22 1673.31 468.46Q1671.03 463.69 1671.03 457.21L1671.03 457.17Q1671.03 450.81 1673.31 445.99Q1675.58 441.17 1679.77 438.45Q1683.95 435.73 1689.55 435.73Q1695.14 435.73 1699.19 438.33Q1703.24 440.93 1705.40 445.58Q1707.56 450.23 1707.56 456.40L1707.56 458.99L1674.47 458.99L1674.47 453.62L1704.17 453.62L1700.85 458.52L1700.85 455.90Q1700.85 451.04 1699.38 447.92Q1697.92 444.79 1695.37 443.25Q1692.83 441.71 1689.51 441.71Q1686.19 441.71 1683.57 443.33Q1680.95 444.95 1679.42 448.11Q1677.90 451.27 1677.90 455.90L1677.90 458.52Q1677.90 462.92 1679.38 466.03Q1680.87 469.13 1683.63 470.79Q1686.38 472.45 1690.13 472.45Q1692.87 472.45 1694.93 471.68Q1696.99 470.91 1698.34 469.69Q1699.69 468.48 1700.23 467.13L1700.39 466.78L1707.06 466.78L1706.98 467.09Q1706.48 469.29 1705.09 471.31Q1703.70 473.34 1701.54 474.96Q1699.38 476.58 1696.45 477.50Q1693.52 478.43 1689.97 478.43M1731.48 478.12Q1725.27 478.12 1722.43 475.52Q1719.60 472.91 1719.60 467.05L1719.60 442.01L1713.19 442.01L1713.19 436.46L1719.60 436.46L1719.60 425.70L1726.54 425.70L1726.54 436.46L1735.30 436.46L1735.30 442.01L1726.54 442.01L1726.54 465.74Q1726.54 469.29 1727.93 470.77Q1729.32 472.26 1732.44 472.26Q1733.25 472.26 1733.87 472.22Q1734.49 472.18 1735.30 472.10L1735.30 477.77Q1734.41 477.89 1733.45 478Q1732.48 478.12 1731.48 478.12M1773.29 477.69L1766.35 477.69L1766.35 422.03L1773.29 422.03L1773.29 477.69M1805.66 477.69L1786.68 477.69L1786.68 422.03L1805.66 422.03Q1813.91 422.03 1819.79 425.33Q1825.68 428.63 1828.80 434.84Q1831.93 441.05 1831.93 449.81L1831.93 449.88Q1831.93 458.64 1828.80 464.87Q1825.68 471.10 1819.81 474.40Q1813.95 477.69 1805.66 477.69M1793.62 428.28L1793.62 471.45L1805.19 471.45Q1811.44 471.45 1815.84 468.90Q1820.24 466.35 1822.53 461.55Q1824.83 456.75 1824.83 449.96L1824.83 449.88Q1824.83 443.06 1822.51 438.21Q1820.20 433.37 1815.80 430.83Q1811.40 428.28 1805.19 428.28"/>
	<path class="ue-label-base" d="M1874.40 420.18L1880.84 420.18L1863.71 491.50L1857.27 491.50"/>
	<path class="ue-key" d="M1942.86 477.69L1908.38 477.69L1908.38 422.03L1942.86 422.03L1942.86 428.28L1915.32 428.28L1915.32 446.14L1941.44 446.14L1941.44 452.31L1915.32 452.31L1915.32 471.45L1942.86 471.45L1942.86 477.69M1960.42 477.69L1953.70 477.69L1953.70 436.46L1960.42 436.46L1960.42 442.59L1960.96 442.59Q1962.54 439.39 1965.53 437.56Q1968.52 435.73 1973.11 435.73Q1980.01 435.73 1983.75 439.72Q1987.50 443.71 1987.50 450.96L1987.50 477.69L1980.78 477.69L1980.78 452.51Q1980.78 447.03 1978.43 444.35Q1976.08 441.67 1971.18 441.67Q1967.90 441.67 1965.49 443.09Q1963.08 444.52 1961.75 447.12Q1960.42 449.73 1960.42 453.32L1960.42 477.69M2015.69 478.43Q2009.91 478.43 2005.64 475.79Q2001.38 473.14 1999.05 468.34Q1996.71 463.54 1996.71 456.98L1996.71 456.90Q1996.71 450.46 1999.05 445.72Q2001.38 440.97 2005.63 438.35Q2009.87 435.73 2015.65 435.73Q2020.71 435.73 2024.35 437.54Q2028 439.35 2030.16 442.36Q2032.32 445.37 2032.90 449L2032.94 449.27L2026.30 449.27L2026.22 449.11Q2025.49 446.03 2022.81 443.85Q2020.13 441.67 2015.65 441.67Q2011.95 441.67 2009.25 443.54Q2006.55 445.41 2005.07 448.84Q2003.58 452.27 2003.58 456.94L2003.58 456.98Q2003.58 461.76 2005.08 465.24Q2006.59 468.71 2009.31 470.60Q2012.03 472.49 2015.65 472.49Q2019.86 472.49 2022.50 470.62Q2025.14 468.75 2026.22 465.27L2026.30 465.04L2032.94 465L2032.86 465.39Q2032.09 469.17 2029.89 472.12Q2027.69 475.07 2024.14 476.75Q2020.59 478.43 2015.69 478.43M2048.60 477.69L2041.88 477.69L2041.88 436.46L2048.60 436.46L2048.60 442.79L2049.14 442.79Q2050.26 439.47 2053.03 437.60Q2055.81 435.73 2059.82 435.73Q2060.75 435.73 2061.63 435.82Q2062.52 435.92 2063.02 436L2063.02 442.52Q2062.14 442.32 2061.15 442.23Q2060.17 442.13 2059.01 442.13Q2055.96 442.13 2053.61 443.36Q2051.26 444.60 2049.93 446.85Q2048.60 449.11 2048.60 452.16L2048.60 477.69M2074.25 492.01Q2073.52 492.01 2072.67 491.95Q2071.82 491.89 2071.16 491.77L2071.16 486.26Q2071.70 486.37 2072.40 486.41Q2073.09 486.45 2073.79 486.45Q2076.72 486.45 2078.57 485.08Q2080.42 483.71 2081.54 480.16L2082.35 477.73L2067.07 436.46L2074.25 436.46L2086.75 474.07L2084.39 470.48L2087.29 470.48L2084.90 474.07L2097.39 436.46L2104.45 436.46L2088.37 480.24Q2086.71 484.72 2084.86 487.28Q2083 489.85 2080.48 490.93Q2077.95 492.01 2074.25 492.01M2119.19 491.50L2112.48 491.50L2112.48 436.46L2119.19 436.46L2119.19 443.13L2119.73 443.13Q2121 440.82 2122.91 439.16Q2124.82 437.50 2127.27 436.61Q2129.72 435.73 2132.61 435.73Q2137.86 435.73 2141.75 438.37Q2145.65 441.01 2147.81 445.81Q2149.97 450.62 2149.97 457.06L2149.97 457.10Q2149.97 463.58 2147.81 468.36Q2145.65 473.14 2141.75 475.79Q2137.86 478.43 2132.65 478.43Q2129.80 478.43 2127.29 477.52Q2124.78 476.61 2122.83 474.99Q2120.88 473.37 2119.73 471.10L2119.19 471.10L2119.19 491.50M2131.15 472.49Q2134.89 472.49 2137.57 470.64Q2140.25 468.78 2141.68 465.33Q2143.10 461.88 2143.10 457.10L2143.10 457.06Q2143.10 452.24 2141.68 448.80Q2140.25 445.37 2137.57 443.52Q2134.89 441.67 2131.15 441.67Q2127.44 441.67 2124.72 443.54Q2122 445.41 2120.54 448.86Q2119.07 452.31 2119.07 457.06L2119.07 457.10Q2119.07 461.84 2120.56 465.29Q2122.04 468.75 2124.74 470.62Q2127.44 472.49 2131.15 472.49M2173.92 478.12Q2167.71 478.12 2164.88 475.52Q2162.04 472.91 2162.04 467.05L2162.04 442.01L2155.64 442.01L2155.64 436.46L2162.04 436.46L2162.04 425.70L2168.99 425.70L2168.99 436.46L2177.74 436.46L2177.74 442.01L2168.99 442.01L2168.99 465.74Q2168.99 469.29 2170.38 470.77Q2171.76 472.26 2174.89 472.26Q2175.70 472.26 2176.32 472.22Q2176.93 472.18 2177.74 472.10L2177.74 477.77Q2176.86 477.89 2175.89 478Q2174.93 478.12 2173.92 478.12M2194.02 477.69L2187.31 477.69L2187.31 436.46L2194.02 436.46L2194.02 477.69M2190.70 428.74Q2188.85 428.74 2187.50 427.39Q2186.15 426.04 2186.15 424.19Q2186.15 422.30 2187.50 420.99Q2188.85 419.68 2190.70 419.68Q2192.59 419.68 2193.91 420.99Q2195.22 422.30 2195.22 424.19Q2195.22 426.04 2193.91 427.39Q2192.59 428.74 2190.70 428.74M2222.84 478.43Q2217.01 478.43 2212.73 475.84Q2208.45 473.26 2206.11 468.48Q2203.78 463.69 2203.78 457.10L2203.78 457.02Q2203.78 450.42 2206.11 445.64Q2208.45 440.86 2212.73 438.29Q2217.01 435.73 2222.80 435.73Q2228.66 435.73 2232.92 438.29Q2237.19 440.86 2239.52 445.64Q2241.85 450.42 2241.85 457.02L2241.85 457.10Q2241.85 463.69 2239.52 468.48Q2237.19 473.26 2232.92 475.84Q2228.66 478.43 2222.84 478.43M2222.84 472.49Q2226.66 472.49 2229.37 470.66Q2232.09 468.82 2233.54 465.39Q2234.99 461.96 2234.99 457.10L2234.99 457.02Q2234.99 452.16 2233.54 448.73Q2232.09 445.29 2229.37 443.48Q2226.66 441.67 2222.80 441.67Q2218.98 441.67 2216.26 443.48Q2213.54 445.29 2212.09 448.73Q2210.65 452.16 2210.65 457.02L2210.65 457.10Q2210.65 461.96 2212.09 465.39Q2213.54 468.82 2216.26 470.66Q2218.98 472.49 2222.84 472.49M2258.09 477.69L2251.38 477.69L2251.38 436.46L2258.09 436.46L2258.09 442.59L2258.63 442.59Q2260.21 439.39 2263.20 437.56Q2266.19 435.73 2270.78 435.73Q2277.69 435.73 2281.43 439.72Q2285.17 443.71 2285.17 450.96L2285.17 477.69L2278.46 477.69L2278.46 452.51Q2278.46 447.03 2276.11 444.35Q2273.75 441.67 2268.86 441.67Q2265.58 441.67 2263.17 443.09Q2260.75 444.52 2259.42 447.12Q2258.09 449.73 2258.09 453.32L2258.09 477.69M2333.16 449.34L2324.36 459.06L2324.06 449.15L2325.60 449.15L2349.82 422.03L2358.54 422.03L2335.70 446.95L2333.16 449.34M2325.10 477.69L2318.15 477.69L2318.15 422.03L2325.10 422.03L2325.10 477.69M2360.58 477.69L2351.60 477.69L2330.96 450.23L2335.78 445.41L2360.58 477.69M2385.08 478.43Q2379.18 478.43 2374.93 475.82Q2370.69 473.22 2368.42 468.46Q2366.14 463.69 2366.14 457.21L2366.14 457.17Q2366.14 450.81 2368.42 445.99Q2370.69 441.17 2374.88 438.45Q2379.06 435.73 2384.66 435.73Q2390.25 435.73 2394.30 438.33Q2398.35 440.93 2400.51 445.58Q2402.67 450.23 2402.67 456.40L2402.67 458.99L2369.57 458.99L2369.57 453.62L2399.27 453.62L2395.96 458.52L2395.96 455.90Q2395.96 451.04 2394.49 447.92Q2393.03 444.79 2390.48 443.25Q2387.93 441.71 2384.62 441.71Q2381.30 441.71 2378.68 443.33Q2376.05 444.95 2374.53 448.11Q2373.01 451.27 2373.01 455.90L2373.01 458.52Q2373.01 462.92 2374.49 466.03Q2375.98 469.13 2378.73 470.79Q2381.49 472.45 2385.23 472.45Q2387.97 472.45 2390.04 471.68Q2392.10 470.91 2393.45 469.69Q2394.80 468.48 2395.34 467.13L2395.49 466.78L2402.17 466.78L2402.09 467.09Q2401.59 469.29 2400.20 471.31Q2398.81 473.34 2396.65 474.96Q2394.49 476.58 2391.56 477.50Q2388.63 478.43 2385.08 478.43M2415.82 492.01Q2415.09 492.01 2414.24 491.95Q2413.39 491.89 2412.74 491.77L2412.74 486.26Q2413.28 486.37 2413.97 486.41Q2414.67 486.45 2415.36 486.45Q2418.29 486.45 2420.14 485.08Q2422 483.71 2423.11 480.16L2423.92 477.73L2408.65 436.46L2415.82 436.46L2428.32 474.07L2425.97 470.48L2428.86 470.48L2426.47 474.07L2438.97 436.46L2446.03 436.46L2429.94 480.24Q2428.28 484.72 2426.43 487.28Q2424.58 489.85 2422.05 490.93Q2419.53 492.01 2415.82 492.01"/>
</svg>
